<?xml version="1.0" standalone="no"?>
<!DOCTYPE svg PUBLIC "-//W3C//DTD SVG 20010904//EN"
 "http://www.w3.org/TR/2001/REC-SVG-20010904/DTD/svg10.dtd">
<svg version="1.0" xmlns="http://www.w3.org/2000/svg"
 width="1280.000000pt" height="1280.000000pt" viewBox="0 0 1280.000000 1280.000000"
 preserveAspectRatio="xMidYMid meet">
<metadata>
Created by potrace 1.15, written by Peter Selinger 2001-2017
</metadata>
<g transform="translate(0.000000,1280.000000) scale(0.100000,-0.100000)"
fill="#000000" stroke="none">
<path d="M11240 9369 c0 -5 -10 -7 -22 -4 -19 5 -28 -2 -52 -37 -16 -24 -26
-35 -23 -25 8 22 -17 23 -57 2 -27 -14 -31 -14 -38 -1 -12 21 -105 19 -138 -2
-37 -24 -119 -52 -165 -57 -64 -7 -136 -26 -172 -46 -19 -11 -45 -19 -59 -19
-24 0 -153 -39 -164 -50 -3 -3 -9 -5 -15 -5 -10 -1 -53 -18 -87 -36 -9 -4 -26
-6 -37 -4 -14 2 -25 -3 -32 -17 -9 -16 -17 -19 -45 -13 -19 3 -40 2 -47 -2 -6
-4 -27 -9 -45 -10 -19 -1 -39 -6 -45 -11 -7 -5 -24 -12 -39 -16 -16 -3 -28
-13 -28 -21 0 -21 22 -65 33 -65 5 0 7 -9 4 -20 -11 -42 28 -146 58 -154 15
-4 17 -8 7 -18 -9 -9 -8 -15 4 -29 9 -10 15 -35 15 -60 0 -49 17 -138 30 -155
5 -6 14 -35 20 -65 6 -30 16 -60 21 -66 6 -7 7 -13 3 -13 -4 0 -2 -7 5 -16 8
-8 15 -27 16 -42 2 -15 15 -64 29 -109 14 -46 37 -122 51 -170 31 -105 30
-103 87 -223 37 -80 45 -108 50 -176 7 -89 14 -115 34 -127 11 -7 11 -12 2
-23 -8 -9 -8 -18 -1 -26 5 -7 13 -28 17 -45 3 -18 11 -33 16 -33 6 0 7 -9 4
-20 -4 -12 -1 -27 5 -35 7 -8 9 -15 4 -15 -5 0 -2 -6 8 -13 10 -8 18 -34 22
-67 3 -31 12 -60 20 -66 9 -6 13 -19 10 -30 -3 -12 4 -30 20 -47 17 -19 21
-27 11 -27 -20 0 -19 -16 1 -24 13 -5 14 -9 5 -20 -9 -11 -7 -17 9 -29 13 -9
17 -16 9 -19 -8 -3 -2 -33 20 -106 18 -56 35 -118 38 -137 3 -19 12 -40 19
-46 8 -6 14 -24 14 -40 0 -18 5 -29 14 -29 8 0 16 -16 20 -42 4 -24 16 -52 26
-63 13 -14 22 -41 25 -80 3 -33 8 -79 10 -103 2 -23 7 -48 12 -55 4 -6 8 -16
10 -22 16 -72 37 -132 49 -142 10 -7 12 -13 4 -18 -5 -3 -7 -11 -4 -17 8 -13
63 -2 83 16 16 14 92 38 108 35 4 -1 15 0 23 4 8 3 46 13 83 22 38 9 84 25
103 36 19 10 43 19 54 19 10 0 22 5 25 10 3 6 20 10 36 10 36 0 308 78 328 94
8 6 21 11 30 11 31 1 106 17 117 26 6 5 42 16 80 25 38 8 73 19 79 24 5 4 34
13 64 19 29 6 66 20 81 31 16 11 32 20 37 20 6 0 18 9 28 20 11 12 21 16 25
10 7 -12 79 20 100 44 7 9 18 16 25 16 20 0 145 120 151 146 3 13 12 28 20 35
10 8 11 16 4 29 -7 14 -5 19 9 23 13 3 21 18 26 48 4 24 11 51 16 60 4 9 4 20
-1 25 -5 5 -10 43 -11 84 -2 41 -9 100 -17 130 -8 30 -16 69 -18 85 -5 47 -28
118 -46 145 -30 46 -58 105 -58 122 0 9 -4 19 -9 22 -4 3 -6 28 -3 56 4 42 1
55 -17 74 -12 12 -19 25 -17 27 3 3 -4 38 -14 78 -11 40 -17 77 -15 82 3 4 2
16 -3 26 -27 52 -41 94 -36 107 4 11 -6 16 -40 21 -48 8 -64 25 -22 25 16 0
26 7 29 21 7 26 -2 79 -14 79 -15 0 -21 -21 -9 -35 8 -10 8 -15 0 -20 -16 -10
-23 1 -23 35 0 29 -19 41 -32 20 -3 -5 -11 -10 -17 -10 -6 0 1 9 16 21 14 11
31 17 38 13 7 -5 9 -2 5 8 -3 9 -1 20 5 26 8 8 7 13 -6 18 -11 4 -15 13 -10
26 3 10 0 25 -6 33 -6 8 -9 18 -6 23 3 5 -1 19 -7 33 -7 13 -19 51 -27 84 -7
33 -17 65 -20 70 -4 6 -15 42 -24 80 -10 39 -23 84 -31 100 -7 17 -17 48 -20
70 -4 22 -12 46 -18 53 -5 6 -6 12 -2 12 4 0 3 6 -3 13 -6 7 -14 32 -18 55 -4
23 -12 42 -19 42 -7 0 -15 14 -19 31 -6 32 -35 101 -47 109 -3 3 -9 25 -13 50
-4 28 -16 56 -31 72 -14 15 -25 31 -25 36 0 14 -71 72 -81 66 -5 -3 -9 0 -9 5
0 6 -7 11 -15 11 -8 0 -15 -4 -15 -10 0 -5 -5 -10 -11 -10 -5 0 -7 4 -4 10 13
22 -55 99 -89 100 -11 0 -27 6 -35 14 -9 8 -38 19 -66 24 -61 13 -305 13 -305
1z m-170 -109 c0 -5 -4 -10 -10 -10 -5 0 -10 5 -10 10 0 6 5 10 10 10 6 0 10
-4 10 -10z m433 -10 c6 -23 -3 -26 -21 -8 -16 16 -15 28 2 28 7 0 16 -9 19
-20z m-363 0 c0 -5 -5 -10 -11 -10 -5 0 -7 5 -4 10 3 6 8 10 11 10 2 0 4 -4 4
-10z m-163 -52 c-3 -7 -5 -2 -5 12 0 14 2 19 5 13 2 -7 2 -19 0 -25z m-189
-118 c14 -61 15 -73 4 -66 -4 3 -14 28 -22 56 -8 28 -18 53 -22 56 -17 11 -8
25 10 15 11 -6 23 -31 30 -61z m307 20 c3 -5 -1 -10 -9 -10 -9 0 -16 5 -16 10
0 6 4 10 9 10 6 0 13 -4 16 -10z m-40 -50 c3 -5 2 -10 -4 -10 -5 0 -13 5 -16
10 -3 6 -2 10 4 10 5 0 13 -4 16 -10z m-35 -30 c0 -5 -4 -10 -9 -10 -6 0 -13
5 -16 10 -3 6 1 10 9 10 9 0 16 -4 16 -10z m540 -75 c0 -15 -6 -25 -15 -25 -9
0 -14 -8 -12 -22 2 -19 -2 -22 -21 -20 -14 2 -29 -4 -38 -15 -12 -17 -13 -17
-14 0 0 22 -4 22 -36 -7 -70 -63 -74 -65 -74 -41 0 8 5 15 11 15 12 0 29 17
45 45 7 13 26 22 50 25 41 6 84 35 84 57 0 7 5 13 10 13 6 0 10 -11 10 -25z
m-827 -25 c5 -21 -7 -35 -22 -26 -10 7 -3 46 9 46 4 0 10 -9 13 -20z m-503 0
c0 -5 -4 -10 -10 -10 -5 0 -10 5 -10 10 0 6 5 10 10 10 6 0 10 -4 10 -10z
m1466 1 c-4 -5 -2 -11 4 -13 5 -1 7 -13 4 -26 -6 -21 -7 -21 -20 -5 -18 24
-17 53 2 53 8 0 13 -4 10 -9z m-143 -74 c-24 -47 -34 -56 -70 -67 -24 -7 -55
-9 -70 -5 -27 6 -27 6 -9 -14 12 -13 26 -19 38 -15 10 3 18 1 18 -5 0 -6 -8
-11 -18 -11 -24 0 -62 28 -62 45 0 19 50 57 69 53 9 -2 25 5 36 15 11 10 21
13 23 7 6 -18 30 -11 38 13 7 25 25 49 31 43 2 -2 -8 -29 -24 -59z m-163 39
c0 -14 -29 -31 -38 -22 -2 3 -2 12 1 21 8 19 37 20 37 1z m437 -61 c3 -9 3
-19 -1 -22 -7 -7 -36 16 -36 28 0 15 30 10 37 -6z m-1617 -35 c0 -5 -4 -10
-10 -10 -5 0 -10 5 -10 10 0 6 5 10 10 10 6 0 10 -4 10 -10z m893 -26 c-4 -10
2 -17 16 -21 13 -3 27 -16 32 -30 5 -13 19 -27 32 -32 15 -6 26 -20 30 -39 3
-16 12 -36 20 -43 13 -14 16 -76 5 -95 -10 -15 37 -174 51 -174 3 0 7 -19 8
-42 1 -25 8 -47 17 -54 9 -6 16 -19 16 -28 0 -9 5 -16 10 -16 6 0 10 -9 10
-19 0 -11 4 -22 9 -25 5 -3 15 -30 21 -58 7 -29 15 -57 19 -63 3 -5 6 -21 7
-35 0 -14 3 -30 6 -35 8 -14 20 -82 24 -135 1 -25 9 -49 18 -56 9 -6 13 -13
10 -16 -6 -7 24 -128 36 -143 4 -5 11 -28 15 -50 3 -22 13 -53 20 -70 7 -16
20 -59 30 -95 26 -99 51 -171 58 -164 3 3 3 -3 0 -15 -3 -11 -2 -29 2 -38 3
-10 6 -20 6 -23 0 -3 7 -13 16 -22 8 -9 17 -35 20 -57 3 -23 10 -44 14 -47 31
-19 -46 -184 -86 -184 -3 0 -32 -13 -64 -29 -65 -31 -116 -37 -105 -11 24 58
22 87 -12 190 -3 8 -5 16 -4 18 0 1 -7 17 -17 35 -9 17 -17 37 -18 42 -3 39
-30 125 -39 125 -26 0 -48 92 -25 105 7 5 5 11 -4 18 -8 7 -18 35 -21 63 -4
29 -14 67 -23 85 -10 19 -18 49 -20 66 -1 18 -9 47 -17 65 -8 18 -20 56 -27
83 -6 28 -18 55 -26 62 -8 6 -12 16 -9 22 4 6 2 18 -3 28 -6 10 -13 40 -16 66
-5 36 -15 56 -40 82 -19 18 -37 45 -41 59 -4 17 -13 26 -27 26 -19 0 -19 1 -4
18 10 10 17 24 17 30 0 7 5 12 10 12 6 0 10 7 10 16 0 14 -3 14 -15 4 -9 -8
-15 -9 -15 -2 0 6 5 14 11 18 11 7 4 70 -10 89 -4 6 -16 42 -25 80 -23 90 -43
135 -61 135 -15 0 -20 17 -17 53 1 9 -2 17 -7 17 -4 0 -8 12 -8 28 0 69 -12
134 -31 165 l-19 34 36 13 c20 8 72 17 116 20 44 4 81 8 82 8 1 1 0 -5 -4 -14z
m-895 -22 c2 -7 -2 -10 -12 -6 -12 4 -16 0 -16 -15 0 -19 3 -20 21 -10 17 9
20 8 17 -2 -3 -8 -19 -16 -36 -20 -30 -6 -31 -5 -25 20 11 47 40 65 51 33z
m1672 -22 c0 -5 -5 -10 -11 -10 -5 0 -7 5 -4 10 3 6 8 10 11 10 2 0 4 -4 4
-10z m-33 -22 c-3 -8 -6 -5 -6 6 -1 11 2 17 5 13 3 -3 4 -12 1 -19z m18 -28
c3 -5 1 -10 -4 -10 -6 0 -11 5 -11 10 0 6 2 10 4 10 3 0 8 -4 11 -10z m-1712
-16 c13 3 32 0 42 -8 17 -12 13 -13 -29 -10 -51 4 -66 10 -66 26 0 7 5 6 15
-2 8 -7 25 -10 38 -6z m-9 -43 c3 -5 -6 -11 -19 -14 -27 -5 -44 8 -23 16 21 8
36 8 42 -2z m1179 -32 c4 -16 3 -18 -9 -8 -16 13 -19 29 -5 29 5 0 11 -9 14
-21z m517 -43 c0 -3 -4 -8 -10 -11 -5 -3 -10 -1 -10 4 0 6 5 11 10 11 6 0 10
-2 10 -4z m-290 -68 c0 -13 -17 -9 -30 7 -6 8 -8 20 -4 26 5 9 11 7 21 -6 7
-11 13 -22 13 -27z m208 -23 c-3 -3 -9 2 -12 12 -6 14 -5 15 5 6 7 -7 10 -15
7 -18z m170 -54 c6 -16 8 -32 5 -35 -9 -8 -32 26 -33 47 0 27 17 20 28 -12z
m12 -71 c0 -5 -5 -10 -11 -10 -5 0 -7 5 -4 10 3 6 8 10 11 10 2 0 4 -4 4 -10z
m119 -82 c17 -46 23 -88 12 -88 -6 0 -11 9 -11 20 0 11 -6 20 -14 20 -7 0 -16
10 -18 23 -9 46 15 66 31 25z m-441 -39 c-16 -16 -31 -29 -33 -29 -1 0 -5 13
-7 30 -4 23 0 30 16 32 47 8 54 -2 24 -33z m-1398 6 c-7 -8 -18 -15 -24 -15
-6 0 -2 7 8 15 25 19 32 19 16 0z m139 -74 c-13 -4 -15 -2 -23 34 l-7 30 20
-30 c12 -18 16 -31 10 -34z m576 12 c4 -14 2 -23 -4 -23 -6 0 -11 3 -11 8 0 4
-3 18 -6 32 -8 31 11 16 21 -17z m-247 -31 c2 -18 -1 -32 -6 -32 -12 0 -34 49
-26 61 11 19 29 2 32 -29z m992 -2 c0 -5 -5 -10 -11 -10 -5 0 -7 5 -4 10 3 6
8 10 11 10 2 0 4 -4 4 -10z m-52 -40 c3 -8 7 -22 8 -30 2 -8 6 -25 10 -37 3
-13 2 -23 -4 -23 -25 0 -47 63 -35 107 4 17 8 22 10 13 3 -8 7 -22 11 -30z
m-1308 20 c0 -5 -4 -10 -10 -10 -5 0 -10 5 -10 10 0 6 5 10 10 10 6 0 10 -4
10 -10z m1730 -20 c0 -5 -4 -10 -9 -10 -6 0 -13 5 -16 10 -3 6 1 10 9 10 9 0
16 -4 16 -10z m-1140 -65 c0 -27 -15 -41 -25 -25 -10 16 4 62 15 55 6 -3 10
-17 10 -30z m-156 -8 c28 -26 44 -91 26 -102 -16 -10 -26 8 -34 58 -4 23 -12
47 -18 54 -17 21 -1 15 26 -10z m-219 -17 c9 15 25 12 25 -5 0 -8 4 -15 9 -15
5 0 7 -9 4 -20 -3 -11 -1 -26 5 -33 10 -13 36 -116 31 -122 -8 -8 -42 25 -43
42 -7 63 -20 94 -52 118 -35 27 -38 53 -4 35 13 -7 21 -7 25 0z m392 -51 c41
-86 42 -96 9 -83 -9 3 -16 16 -16 28 0 11 -7 34 -15 50 -18 34 -19 39 -2 34 6
-3 17 -15 24 -29z m1323 -1 c0 -16 -5 -19 -25 -16 -29 6 -43 -8 -26 -25 17
-17 13 -27 -10 -27 -17 0 -19 3 -10 14 8 10 9 16 1 21 -7 4 -6 13 2 28 7 12
12 25 11 28 -1 3 11 3 28 1 21 -3 29 -10 29 -24z m-470 -79 c0 -16 -4 -29 -9
-29 -12 0 -21 25 -21 57 0 21 2 24 15 13 8 -7 15 -25 15 -41z m448 -71 c0 -7
4 -24 8 -37 5 -18 4 -23 -7 -19 -15 5 -26 68 -11 68 5 0 9 -6 10 -12z m-674
-25 c-1 -28 -24 -46 -24 -20 0 9 -3 22 -6 31 -4 11 0 16 13 16 14 0 18 -7 17
-27z m242 12 c11 -27 -2 -37 -14 -11 -7 16 -8 26 -1 26 5 0 12 -7 15 -15z
m-691 -6 c11 -17 2 -18 -19 -3 -17 12 -17 14 -4 14 9 0 20 -5 23 -11z m465
-84 c0 -8 -4 -15 -9 -15 -5 0 -14 7 -21 15 -10 13 -9 15 9 15 12 0 21 -6 21
-15z m165 -125 c-3 -5 -11 -10 -16 -10 -6 0 -7 5 -4 10 3 6 11 10 16 10 6 0 7
-4 4 -10z m465 1 c0 -5 3 -18 7 -28 6 -17 5 -17 -15 1 -12 10 -19 23 -16 27 7
12 24 11 24 0z m-71 -84 c1 -5 -6 -1 -15 7 -8 9 -12 21 -8 28 5 8 10 6 15 -8
4 -10 8 -23 8 -27z m-969 24 c0 -5 3 -23 6 -40 6 -26 4 -30 -10 -25 -18 7 -23
74 -6 74 6 0 10 -4 10 -9z m-520 -36 c0 -7 -5 -17 -11 -21 -13 -8 -29 13 -29
39 0 15 3 16 20 7 11 -6 20 -17 20 -25z m1194 -11 c8 -22 8 -44 -1 -44 -20 1
-32 18 -26 38 6 26 18 29 27 6z m-1194 -34 c0 -5 -2 -10 -4 -10 -3 0 -8 5 -11
10 -3 6 -1 10 4 10 6 0 11 -4 11 -10z m1490 1 c0 -5 3 -18 7 -28 6 -16 5 -16
-10 -4 -19 15 -23 41 -7 41 6 0 10 -4 10 -9z m-440 -46 c10 -12 10 -15 -3 -15
-8 0 -17 7 -21 15 -3 8 -2 15 3 15 5 0 14 -7 21 -15z m240 -31 c0 -8 -5 -12
-10 -9 -6 4 -8 11 -5 16 9 14 15 11 15 -7z m-1152 -32 c6 -18 -15 -14 -22 4
-4 10 -1 14 6 12 6 -2 14 -10 16 -16z m1540 -17 c14 -31 16 -65 3 -65 -5 0
-12 10 -16 23 -19 62 -10 92 13 42z m-1401 -51 c5 -14 -11 -33 -28 -34 -10 0
-20 31 -13 41 9 15 34 10 41 -7z m1138 -52 c27 -26 39 -87 23 -116 -11 -20
-11 -20 -20 4 -6 14 -11 30 -12 35 -1 6 -5 15 -9 22 -4 6 -9 33 -12 60 -3 26
-2 41 1 33 4 -8 17 -25 29 -38z m150 38 c3 -5 -1 -10 -9 -10 -9 0 -16 5 -16
10 0 6 4 10 9 10 6 0 13 -4 16 -10z m-1545 -17 c0 -5 -4 -15 -10 -23 -11 -18
-25 -7 -17 15 6 15 27 21 27 8z m1629 -24 c-25 -16 -32 -9 -13 12 12 13 20 16
22 9 3 -7 -2 -16 -9 -21z m-442 -23 c11 -34 2 -69 -11 -47 -11 17 -17 81 -8
81 5 0 13 -15 19 -34z m451 -8 c-6 -17 -36 -34 -44 -25 -4 4 1 14 12 22 23 18
37 19 32 3z m-1222 -45 c13 -38 11 -54 -5 -37 -12 11 -27 92 -15 81 4 -4 13
-24 20 -44z m234 17 c0 -5 -4 -10 -10 -10 -5 0 -10 5 -10 10 0 6 5 10 10 10 6
0 10 -4 10 -10z m1026 -2 c-10 -6 -22 -6 -26 -2 -5 5 3 10 18 11 22 1 24 0 8
-9z m-101 -46 c-3 -3 -11 0 -18 7 -9 10 -8 11 6 5 10 -3 15 -9 12 -12z m-972
-12 c-15 -14 -53 -22 -53 -10 0 12 41 30 53 23 5 -3 5 -9 0 -13z m29 -2 c-7
-7 -12 -8 -12 -2 0 14 12 26 19 19 2 -3 -1 -11 -7 -17z m-22 -47 c0 -4 -21
-12 -46 -18 -48 -11 -48 -4 0 21 28 14 46 13 46 -3z m-20 -41 c0 -5 -7 -10
-15 -10 -8 0 -15 5 -15 10 0 6 7 10 15 10 8 0 15 -4 15 -10z m-10 -46 c0 -8
-4 -12 -10 -9 -5 3 -10 10 -10 16 0 5 5 9 10 9 6 0 10 -7 10 -16z m-45 -4 c3
-5 1 -10 -4 -10 -6 0 -11 5 -11 10 0 6 2 10 4 10 3 0 8 -4 11 -10z m-55 -10
c0 -5 -4 -10 -10 -10 -5 0 -10 5 -10 10 0 6 5 10 10 10 6 0 10 -4 10 -10z
m800 -10 c0 -5 -4 -10 -10 -10 -5 0 -10 5 -10 10 0 6 5 10 10 10 6 0 10 -4 10
-10z m397 -80 c3 -11 8 -20 12 -20 4 0 7 -17 7 -37 l0 -37 -22 49 c-26 58 -28
65 -13 65 6 0 13 -9 16 -20z m-1417 -3 c19 -15 40 -61 40 -87 0 -33 -17 -22
-24 15 -4 19 -10 35 -14 35 -4 0 -12 11 -19 25 -12 27 -7 31 17 12z m-200
-152 c-7 -8 -17 -12 -22 -9 -6 4 -5 10 3 15 22 14 33 10 19 -6z m823 0 c4 -8
1 -17 -5 -21 -8 -5 -6 -11 5 -18 8 -7 17 -20 19 -30 4 -27 -22 -33 -29 -7 -3
12 -9 21 -13 21 -11 0 -20 39 -13 56 7 18 29 18 36 -1z m-438 -55 l6 -35 -21
32 c-12 18 -18 37 -15 44 10 16 22 -1 30 -41z m-353 -22 c-6 -6 -15 -8 -19 -4
-4 4 -1 11 7 16 19 12 27 3 12 -12z m373 -27 c3 -5 1 -12 -5 -16 -5 -3 -10 1
-10 9 0 18 6 21 15 7z m149 -21 c18 -64 18 -66 -3 -35 -12 17 -21 36 -21 43 0
20 18 14 24 -8z m-509 -1 c-4 -5 -20 -9 -36 -9 -39 0 -29 17 11 18 17 0 28 -4
25 -9z m425 -64 c0 -8 3 -20 6 -29 8 -21 -10 -21 -30 0 -24 23 -21 53 4 47 11
-3 20 -11 20 -18z m75 -35 c3 -5 2 -10 -4 -10 -5 0 -13 5 -16 10 -3 6 -2 10 4
10 5 0 13 -4 16 -10z m-125 -160 c0 -11 -4 -20 -10 -20 -5 0 -10 2 -10 4 0 2
-3 11 -6 20 -4 11 -1 16 10 16 9 0 16 -8 16 -20z m-214 -51 c3 -6 2 -15 -4
-21 -6 -6 -11 -2 -15 11 -5 22 7 29 19 10z"/>
<path d="M11450 8790 c0 -5 5 -10 10 -10 6 0 10 5 10 10 0 6 -4 10 -10 10 -5
0 -10 -4 -10 -10z"/>
<path d="M9548 8888 c-15 -10 -41 -18 -57 -18 -15 0 -64 -11 -107 -25 -43 -14
-94 -28 -114 -31 -19 -4 -40 -10 -45 -15 -6 -4 -33 -13 -60 -19 -28 -7 -57
-14 -65 -18 -8 -3 -17 -6 -20 -7 -3 -1 -14 -5 -25 -9 -11 -4 -33 -12 -50 -18
-16 -5 -39 -14 -50 -18 -11 -4 -56 -17 -100 -28 -114 -28 -197 -51 -220 -61
-41 -18 -61 -25 -85 -27 -13 -2 -49 -12 -80 -23 -30 -10 -73 -24 -95 -30 -64
-17 -66 -21 -52 -70 7 -23 18 -45 23 -49 13 -9 35 -83 28 -94 -8 -13 36 -148
55 -167 17 -18 19 -26 26 -102 3 -25 16 -81 30 -123 14 -42 25 -85 25 -95 0
-10 3 -21 8 -25 4 -4 7 -11 7 -14 1 -4 6 -16 11 -27 6 -11 14 -39 18 -63 3
-24 10 -51 15 -60 12 -21 24 -54 25 -67 1 -5 7 -20 14 -33 8 -13 11 -30 8 -39
-3 -8 3 -26 14 -40 11 -14 20 -41 20 -59 0 -18 5 -36 10 -39 6 -3 10 -17 10
-31 0 -13 5 -24 11 -24 6 0 8 -8 4 -19 -8 -27 33 -149 68 -197 24 -35 30 -54
34 -120 2 -44 11 -93 18 -110 8 -16 17 -49 21 -72 4 -24 11 -45 15 -48 5 -3 7
-9 4 -14 -3 -5 -1 -11 5 -15 5 -3 10 -15 10 -26 0 -10 5 -19 11 -19 7 0 9 -9
5 -24 -4 -15 1 -32 12 -47 22 -30 43 -96 35 -115 -3 -8 1 -20 10 -27 16 -13
27 -50 33 -116 3 -25 8 -50 13 -55 5 -6 14 -36 21 -66 7 -30 18 -65 26 -77 8
-12 14 -34 14 -48 0 -14 5 -25 10 -25 6 0 10 -9 10 -19 0 -11 5 -23 10 -26 6
-4 8 -10 5 -15 -3 -5 -1 -11 5 -15 5 -3 10 -15 10 -26 0 -10 4 -19 8 -19 5 0
9 -6 10 -12 0 -7 8 -40 16 -73 8 -33 17 -82 20 -108 3 -30 11 -54 22 -61 12
-9 14 -15 6 -20 -19 -11 -14 -20 18 -34 25 -11 30 -20 30 -47 0 -19 4 -36 9
-40 11 -6 128 25 186 50 22 9 57 19 79 21 21 2 44 8 50 13 6 4 36 14 66 21 30
7 60 16 65 20 6 4 35 13 65 20 30 7 60 20 66 28 6 8 16 12 22 8 7 -4 12 -3 12
3 0 5 18 12 40 16 31 5 40 11 40 27 0 11 5 18 13 16 6 -3 12 -10 12 -15 0 -19
14 -26 27 -16 7 6 38 16 68 23 30 7 69 18 85 25 17 7 54 19 83 25 28 7 54 16
57 20 3 4 25 11 49 14 25 4 56 16 69 27 14 10 40 19 57 19 36 0 139 27 157 42
11 9 1 70 -17 93 -4 6 -10 23 -14 39 -6 23 -11 27 -31 23 -14 -2 -25 0 -25 4
0 5 9 9 19 9 26 0 31 10 20 39 -8 19 -12 21 -24 11 -9 -8 -15 -8 -15 -2 0 6 5
12 11 14 16 5 -8 106 -31 133 -10 11 -21 41 -24 67 -4 26 -11 50 -17 53 -5 4
-7 10 -4 15 3 5 1 11 -5 15 -5 3 -10 16 -10 28 0 43 -11 47 -75 31 -33 -8 -67
-18 -75 -21 -8 -3 -21 -7 -28 -9 -7 -1 -24 -10 -38 -19 -14 -9 -33 -14 -42
-11 -9 3 -30 -1 -46 -9 -15 -8 -37 -15 -47 -15 -11 0 -19 -4 -19 -8 0 -5 -13
-9 -29 -9 -38 0 -68 -22 -49 -36 9 -6 8 -7 -5 -3 -20 6 -105 -11 -123 -25 -11
-9 -46 21 -50 44 -2 7 -7 26 -12 43 -7 23 -7 35 1 43 8 8 8 14 2 19 -6 4 -11
16 -12 27 -5 50 -14 89 -22 99 -5 6 -14 37 -21 68 -6 32 -16 60 -21 64 -6 3
-8 12 -5 20 3 7 -1 26 -9 41 -8 15 -15 34 -15 41 0 7 -9 38 -20 69 -25 73 -25
93 -1 93 11 0 22 4 25 9 4 5 24 12 45 16 22 3 54 17 72 31 20 14 37 20 42 15
5 -5 16 -2 27 9 11 11 41 21 77 25 95 12 166 30 176 47 10 16 -10 78 -25 78
-5 0 -8 7 -8 15 0 8 -7 15 -15 15 -8 0 -15 -5 -15 -11 0 -5 -5 -7 -11 -3 -8 4
-7 9 2 15 8 5 10 9 4 9 -5 0 -2 5 8 11 18 10 24 39 8 39 -5 0 -12 18 -16 40
-4 22 -12 40 -18 40 -8 0 -7 4 2 9 11 7 11 18 1 62 -7 30 -16 59 -20 64 -4 6
-13 35 -20 65 -7 30 -17 62 -21 70 -4 8 -10 23 -13 32 -5 18 -30 15 -76 -9
-14 -7 -35 -13 -47 -13 -12 0 -24 -4 -27 -9 -3 -5 -17 -8 -31 -8 -14 0 -34 -8
-44 -17 -10 -9 -20 -13 -23 -10 -6 6 -85 -14 -103 -26 -5 -4 -36 -13 -67 -20
-45 -10 -58 -17 -58 -32 0 -25 -26 -34 -45 -15 -19 20 -19 27 1 27 11 0 14 5
10 16 -3 9 -6 20 -6 25 0 5 -9 9 -20 9 -11 0 -20 5 -20 11 0 6 7 9 15 5 16 -6
22 19 6 28 -4 3 -11 23 -15 44 -3 21 -19 78 -34 128 -16 49 -39 123 -51 164
-12 41 -26 85 -31 97 -18 43 56 91 99 64 8 -5 21 -5 30 -1 28 15 55 23 86 27
16 2 34 8 39 13 6 6 18 10 28 10 10 0 28 10 40 23 36 35 63 45 111 40 34 -4
51 -1 69 13 23 17 24 22 15 59 -5 22 -16 47 -22 55 -7 8 -19 35 -26 60 -7 25
-16 49 -20 54 -5 5 -4 15 2 23 8 9 8 17 1 26 -7 7 -17 38 -23 68 -6 30 -16 60
-21 67 -6 6 -7 12 -2 12 4 0 3 5 -4 12 -7 7 -12 18 -12 25 0 7 -9 22 -20 33
-11 11 -23 34 -26 50 -6 25 -10 28 -41 27 -20 -1 -49 -10 -65 -19z m-31 -123
c3 -9 3 -19 -1 -22 -8 -9 -37 18 -30 28 8 14 24 11 31 -6z m-567 -89 c0 -11
-19 -15 -25 -6 -3 5 1 10 9 10 9 0 16 -2 16 -4z m180 -66 c0 -5 -4 -10 -10
-10 -5 0 -10 5 -10 10 0 6 5 10 10 10 6 0 10 -4 10 -10z m199 -64 c-5 -6 -9 7
-8 35 l1 44 8 -35 c5 -20 5 -39 -1 -44z m-549 25 c0 -13 -10 -21 -34 -25 -41
-8 -65 -31 -41 -40 9 -3 23 1 32 9 8 8 18 13 23 10 9 -6 -34 -95 -54 -110 -7
-6 -16 -20 -20 -33 -4 -12 -15 -22 -26 -22 -24 0 -37 -20 -19 -31 22 -13 3
-21 -33 -14 -31 7 -32 8 -10 16 23 9 29 24 12 34 -18 11 -10 43 19 76 25 27
34 31 60 26 37 -8 42 9 6 23 -28 11 -31 26 -10 53 9 13 20 17 34 12 14 -4 24
0 33 14 16 26 28 27 28 2z m867 -128 c-6 -18 -17 -33 -23 -33 -21 0 -20 43 1
87 l20 43 7 -33 c4 -18 2 -46 -5 -64z m-242 77 c3 -5 -1 -10 -9 -10 -9 0 -16
5 -16 10 0 6 4 10 9 10 6 0 13 -4 16 -10z m-505 -118 c0 -13 -12 -22 -22 -16
-10 6 -1 24 13 24 5 0 9 -4 9 -8z m441 -66 c3 -26 1 -49 -3 -52 -4 -3 -8 1 -8
9 0 8 -7 20 -15 27 -11 9 -12 16 -5 25 6 7 7 20 4 30 -5 13 -3 16 7 13 8 -3
16 -24 20 -52z m-503 7 c-11 -14 -10 -15 11 -8 17 5 22 4 19 -6 -6 -20 -48
-24 -48 -6 0 25 12 47 22 41 5 -3 4 -12 -4 -21z m132 -31 c0 -15 -2 -15 -10
-2 -13 20 -13 33 0 25 6 -3 10 -14 10 -23z m-63 2 c-3 -3 -12 -4 -19 -1 -8 3
-5 6 6 6 11 1 17 -2 13 -5z m-42 -24 c3 -5 1 -10 -4 -10 -6 0 -11 5 -11 10 0
6 2 10 4 10 3 0 8 -4 11 -10z m-251 -6 c20 -8 11 -24 -14 -24 -13 0 -17 5 -14
15 7 17 7 17 28 9z m-44 -35 c0 -6 -4 -7 -10 -4 -5 3 -10 11 -10 16 0 6 5 7
10 4 6 -3 10 -11 10 -16z m40 -19 c0 -5 -4 -10 -10 -10 -5 0 -10 5 -10 10 0 6
5 10 10 10 6 0 10 -4 10 -10z m354 -185 c30 -39 27 -62 -5 -44 -22 11 -43 55
-33 70 8 13 9 12 38 -26z m134 -100 c-3 -3 -9 2 -12 12 -6 14 -5 15 5 6 7 -7
10 -15 7 -18z m-231 -27 c-3 -7 -5 -2 -5 12 0 14 2 19 5 13 2 -7 2 -19 0 -25z
m363 -96 c1 -9 9 -41 19 -69 10 -29 14 -53 9 -53 -13 0 -60 134 -50 145 8 8
22 -6 22 -23z m155 -167 c-39 -32 -54 -32 -24 0 13 13 31 25 39 24 9 0 4 -9
-15 -24z m-262 -57 c39 -83 50 -116 43 -133 -8 -22 -26 -19 -26 5 0 10 -8 41
-19 67 -21 53 -35 113 -28 113 3 0 17 -24 30 -52z m334 36 c-3 -3 -12 -4 -19
-1 -8 3 -5 6 6 6 11 1 17 -2 13 -5z m293 -43 c0 -11 5 -23 10 -26 13 -8 13
-42 1 -50 -12 -7 -26 18 -36 63 -5 25 -3 32 9 32 9 0 16 -8 16 -19z m-277 -66
c-10 -8 -22 -15 -27 -15 -5 0 -15 -8 -22 -17 -9 -13 -13 -14 -14 -5 0 8 10 26
23 42 17 21 26 25 40 18 18 -9 18 -10 0 -23z m-134 -37 c1 -5 -3 -8 -9 -8 -5
0 -10 12 -9 28 0 24 1 25 9 7 5 -11 9 -23 9 -27z m-264 -8 c3 -6 -1 -13 -10
-16 -19 -8 -30 0 -20 15 8 14 22 14 30 1z m-245 -26 c0 -9 -7 -14 -17 -12 -25
5 -28 28 -4 28 12 0 21 -6 21 -16z m640 6 c0 -5 -2 -10 -4 -10 -2 0 -12 -3
-22 -7 -16 -6 -17 -5 -4 10 17 19 30 22 30 7z m5 -39 c-15 -14 -55 -23 -55
-13 0 15 12 22 39 22 15 0 21 -4 16 -9z m-430 -11 c-3 -5 -14 -10 -23 -10 -15
0 -15 2 -2 10 20 13 33 13 25 0z m355 -10 c0 -5 -4 -10 -10 -10 -5 0 -10 5
-10 10 0 6 5 10 10 10 6 0 10 -4 10 -10z m-530 -20 c0 -5 -4 -10 -10 -10 -5 0
-10 5 -10 10 0 6 5 10 10 10 6 0 10 -4 10 -10z m160 -20 c0 -5 -4 -10 -10 -10
-5 0 -10 5 -10 10 0 6 5 10 10 10 6 0 10 -4 10 -10z m820 -15 c-7 -9 -15 -13
-17 -11 -7 7 7 26 19 26 6 0 6 -6 -2 -15z m-1020 -55 c0 -5 -4 -10 -10 -10 -5
0 -10 5 -10 10 0 6 5 10 10 10 6 0 10 -4 10 -10z m344 -32 c3 -13 6 -29 6 -35
0 -15 -28 -17 -49 -4 -12 8 -12 13 3 35 20 32 32 33 40 4z m146 -8 c0 -11 -2
-20 -5 -20 -2 0 -9 9 -15 20 -9 16 -8 20 5 20 8 0 15 -9 15 -20z m376 -107
c-10 -10 -19 5 -10 18 6 11 8 11 12 0 2 -7 1 -15 -2 -18z m-830 -39 l6 -39
-21 38 c-12 21 -19 43 -15 48 10 17 24 -4 30 -47z m41 -160 c-3 -3 -12 -4 -19
-1 -8 3 -5 6 6 6 11 1 17 -2 13 -5z m437 -51 c-2 -39 -5 -42 -13 -13 -8 26 -5
40 8 40 4 0 6 -12 5 -27z m75 -42 c-1 -22 -3 -27 -6 -14 -2 12 -11 27 -19 33
-20 18 -17 29 6 23 16 -4 20 -13 19 -42z m-332 -37 c-3 -3 -12 -4 -19 -1 -8 3
-5 6 6 6 11 1 17 -2 13 -5z m-37 -205 c0 -17 -20 -49 -30 -49 -14 0 -12 34 2
48 15 15 28 15 28 1z m460 -38 c0 -8 -6 -11 -16 -7 -9 3 -20 6 -25 6 -13 0
-11 24 3 38 9 9 14 7 24 -6 8 -9 14 -23 14 -31z m-365 18 c11 -17 -1 -21 -15
-4 -8 9 -8 15 -2 15 6 0 14 -5 17 -11z m-63 -183 c2 -10 -3 -21 -9 -23 -8 -3
-13 4 -13 17 0 12 -5 31 -11 43 l-11 22 20 -20 c11 -11 22 -29 24 -39z m308
10 c-15 -15 -34 9 -26 31 7 17 8 17 22 -1 9 -13 11 -23 4 -30z m699 -35 c11
-20 5 -31 -16 -31 -7 0 -13 11 -13 25 0 29 15 33 29 6z m-405 -27 c4 -10 1
-14 -6 -12 -15 5 -23 28 -10 28 5 0 13 -7 16 -16z m278 -56 c-9 -9 -15 -9 -24
0 -9 9 -7 12 12 12 19 0 21 -3 12 -12z m483 -19 c-10 -15 -25 -10 -19 6 4 8
10 12 15 9 5 -3 7 -10 4 -15z m-611 -21 c6 -28 2 -48 -8 -37 -10 11 -17 69 -8
69 5 0 12 -14 16 -32z m-744 -4 c0 -17 -22 -14 -28 4 -2 7 3 12 12 12 9 0 16
-7 16 -16z m180 -30 c12 -36 7 -55 -9 -38 -5 5 -13 27 -17 48 -9 48 9 42 26
-10z m652 -46 c-6 -6 -15 -8 -19 -4 -4 4 -1 11 7 16 19 12 27 3 12 -12z m-792
-33 c0 -14 -4 -25 -10 -25 -5 0 -10 11 -10 25 0 14 5 25 10 25 6 0 10 -11 10
-25z m923 -25 c9 -11 17 -30 17 -42 0 -20 -1 -21 -20 -3 -11 10 -17 21 -15 26
3 4 1 10 -5 14 -12 7 -13 25 -2 25 4 0 15 -9 25 -20z m-910 -15 c-3 -9 -8 -14
-10 -11 -3 3 -2 9 2 15 9 16 15 13 8 -4z m747 -6 c0 -11 -27 -12 -34 0 -3 4
-3 11 0 14 8 8 34 -3 34 -14z m-240 -19 c-20 -13 -33 -13 -25 0 3 6 14 10 23
10 15 0 15 -2 2 -10z m210 -24 c0 -3 -4 -8 -10 -11 -5 -3 -10 -1 -10 4 0 6 5
11 10 11 6 0 10 -2 10 -4z m-500 -202 c0 -16 -26 -19 -35 -4 -4 6 -4 18 -1 27
5 12 9 13 21 3 8 -7 15 -19 15 -26z m710 16 c0 -5 -4 -10 -10 -10 -5 0 -10 5
-10 10 0 6 5 10 10 10 6 0 10 -4 10 -10z m-386 -47 c9 -32 -19 -69 -30 -40 -7
20 3 67 15 67 5 0 12 -12 15 -27z m-104 7 c0 -5 -2 -10 -4 -10 -3 0 -8 5 -11
10 -3 6 -1 10 4 10 6 0 11 -4 11 -10z m-193 -32 c11 -13 23 -38 27 -56 5 -28
3 -33 -12 -30 -18 3 -36 34 -47 81 -9 33 4 35 32 5z m513 2 c0 -5 -4 -10 -10
-10 -5 0 -10 5 -10 10 0 6 5 10 10 10 6 0 10 -4 10 -10z"/>
<path d="M8649 8431 c-27 -22 -23 -33 9 -24 13 3 22 13 22 24 0 24 -2 24 -31
0z"/>
<path d="M8125 8460 c-4 -6 -12 -9 -18 -8 -7 1 -26 -6 -44 -15 -18 -9 -55 -22
-83 -28 -28 -6 -54 -17 -56 -24 -3 -7 -14 -11 -25 -8 -10 3 -30 -2 -44 -11
-13 -9 -31 -16 -39 -16 -7 0 -17 -7 -20 -16 -6 -16 -8 -16 -24 0 -20 17 -57
22 -66 8 -3 -5 -31 -14 -63 -21 -32 -7 -64 -18 -71 -24 -8 -6 -21 -12 -30 -12
-10 -1 -43 -8 -75 -15 -61 -14 -83 -35 -74 -71 3 -10 1 -22 -4 -25 -5 -3 -5
-12 0 -23 12 -21 12 -55 6 -258 -3 -97 -1 -153 5 -153 15 0 12 -46 -4 -59 -11
-9 -13 -27 -9 -69 8 -91 6 -142 -7 -157 -8 -9 -8 -15 0 -20 6 -3 7 -12 3 -18
-11 -17 -12 -66 -2 -73 5 -3 6 -13 1 -22 -6 -15 -8 -48 -2 -62 8 -20 6 -97 -2
-107 -7 -9 -7 -17 1 -26 8 -10 7 -17 -1 -25 -8 -8 -8 -15 0 -25 9 -10 9 -16 0
-25 -8 -8 -7 -13 4 -17 15 -6 14 -45 -1 -45 -9 0 -31 61 -31 88 0 11 -4 23 -9
26 -5 3 -17 38 -26 78 -10 40 -21 77 -26 83 -5 5 -9 19 -9 32 0 13 -5 23 -11
23 -6 0 -9 7 -5 15 4 10 -1 15 -16 15 -21 0 -21 1 -3 14 13 9 16 18 10 32 -5
10 -9 21 -10 24 -15 57 -38 130 -44 145 -5 11 -15 43 -22 70 -6 28 -15 54 -20
59 -4 5 -5 14 -3 21 3 7 1 16 -5 20 -6 3 -11 14 -11 24 0 10 -9 21 -20 24 -21
5 -29 51 -10 62 15 9 12 25 -5 25 -9 0 -12 6 -9 15 4 8 1 21 -5 29 -7 8 -11
18 -9 22 4 16 -14 94 -22 99 -5 3 -11 23 -15 44 -8 46 -20 53 -66 41 -19 -5
-61 -16 -94 -25 -33 -9 -68 -20 -77 -25 -9 -5 -47 -16 -84 -25 -37 -8 -72 -20
-78 -24 -6 -5 -29 -12 -51 -16 -22 -4 -53 -13 -70 -20 -16 -7 -50 -20 -75 -30
-25 -9 -53 -21 -63 -26 -9 -5 -40 -12 -68 -14 -28 -3 -60 -10 -70 -16 -19 -10
-26 -44 -11 -53 5 -3 14 -31 21 -63 8 -32 16 -62 19 -68 4 -5 7 -14 9 -20 12
-52 35 -133 42 -145 4 -8 16 -49 26 -90 9 -41 22 -79 29 -85 6 -5 12 -23 13
-40 1 -16 7 -31 13 -33 17 -6 40 -58 40 -90 0 -16 7 -35 15 -42 8 -6 20 -39
26 -72 7 -33 17 -62 24 -64 6 -3 11 -21 10 -42 -1 -20 2 -39 7 -42 4 -3 9 -38
12 -77 2 -39 8 -77 12 -85 15 -22 34 -82 34 -104 0 -12 7 -25 16 -28 9 -4 14
-13 10 -21 -3 -8 -1 -15 4 -15 5 0 10 -17 12 -37 3 -35 6 -38 36 -41 19 -2 44
4 58 13 29 18 118 23 138 6 8 -7 16 -7 22 -1 6 6 23 11 39 13 38 5 63 15 101
44 17 13 37 23 43 23 7 0 24 9 37 19 22 17 28 18 70 5 26 -8 50 -11 54 -9 5 3
11 1 15 -5 9 -15 25 -12 25 5 0 8 6 12 15 9 22 -9 115 46 115 68 0 11 6 25 13
32 28 27 77 57 86 52 5 -3 11 1 15 9 8 21 19 19 50 -10 20 -18 26 -31 20 -43
-8 -20 -11 -29 -18 -62 -3 -14 -8 -37 -12 -52 -5 -23 -2 -28 21 -34 31 -8 78
14 71 33 -3 7 -1 15 4 18 6 4 6 14 -1 26 -13 24 -8 32 15 23 9 -3 16 -15 16
-25 0 -16 8 -19 45 -19 50 0 59 -16 26 -47 -37 -34 -36 -73 2 -139 25 -43 40
-54 73 -54 24 0 34 -5 34 -15 0 -9 11 -20 25 -25 20 -8 25 -16 25 -45 0 -36 8
-43 27 -24 12 12 53 -8 53 -26 0 -32 -92 -63 -102 -34 -2 5 -11 7 -21 3 -17
-6 -18 -11 -18 -114 0 -19 -2 -42 -6 -50 -3 -8 -7 -19 -7 -23 -1 -4 -6 -11
-13 -15 -15 -10 -18 -30 -9 -79 6 -31 13 -43 29 -47 15 -3 22 -13 24 -32 0
-15 8 -31 17 -36 9 -5 16 -20 16 -33 0 -14 5 -25 10 -25 6 0 10 -6 10 -14 0
-8 7 -16 15 -20 8 -3 15 -12 15 -20 0 -18 47 -56 70 -56 12 0 20 -15 28 -52
15 -63 94 -226 127 -263 14 -14 22 -31 19 -39 -3 -7 2 -16 10 -19 9 -4 16 -13
16 -22 0 -8 5 -15 11 -15 6 0 9 9 6 20 -3 12 2 25 12 33 11 7 17 25 16 47 0
31 3 35 30 38 16 2 34 11 40 19 9 12 14 13 19 4 6 -8 17 -6 42 9 l34 21 11
-25 c15 -31 56 -35 89 -8 17 14 23 30 25 70 2 29 8 59 15 67 14 17 60 20 60 5
0 -5 18 -10 39 -10 30 0 44 6 55 22 l16 22 23 -22 c13 -12 30 -22 39 -22 22 0
98 -72 98 -92 0 -9 5 -20 11 -23 15 -10 157 25 170 41 9 11 8 14 -5 14 -10 0
-16 9 -16 25 0 16 -6 25 -16 25 -9 0 -18 9 -21 20 -3 11 -9 20 -14 20 -5 0 -9
9 -9 20 0 11 -5 20 -10 20 -6 0 -15 10 -20 23 -10 23 -18 36 -63 105 -31 47
-72 90 -103 109 -10 6 -18 17 -16 24 2 7 -3 16 -10 20 -7 5 -14 14 -14 21 -1
7 -3 16 -4 21 -1 4 -3 11 -4 16 -2 17 -60 111 -68 111 -4 0 -8 6 -8 14 0 8 -7
16 -15 20 -8 3 -15 10 -15 16 0 15 -48 65 -63 65 -6 0 -12 5 -12 12 0 6 -3 15
-7 19 -5 4 -8 16 -8 26 0 10 -7 18 -15 18 -8 0 -12 6 -9 13 3 8 -2 20 -11 27
-8 7 -15 20 -15 29 0 22 -41 61 -63 61 -10 0 -14 5 -11 15 4 10 0 15 -10 15
-9 0 -16 6 -14 13 2 6 -10 28 -25 48 -15 20 -25 43 -22 51 4 9 -1 18 -9 21 -9
4 -16 16 -16 27 0 11 -4 20 -10 20 -5 0 -10 6 -10 14 0 8 -7 16 -15 20 -8 3
-15 12 -15 21 0 8 -4 15 -10 15 -5 0 -10 6 -10 14 0 8 -9 21 -20 29 -11 8 -17
16 -14 20 8 8 -32 28 -41 19 -4 -4 -4 3 -1 16 6 16 3 22 -8 22 -9 0 -16 7 -16
15 0 8 -6 15 -13 15 -15 0 -41 56 -32 70 4 6 -1 20 -11 32 -17 17 -19 40 -20
191 0 95 -4 198 -8 230 -8 53 -7 60 13 73 15 11 18 19 12 32 -28 52 -32 82
-15 100 8 8 13 21 10 28 -3 7 3 18 12 24 16 9 16 11 -2 25 -17 13 -18 15 -3
15 9 0 17 5 17 10 0 6 -7 10 -15 10 -8 0 -15 5 -15 10 0 6 6 10 14 10 10 0 12
12 9 48 -3 26 -7 54 -10 62 -9 24 -7 54 4 75 6 11 10 52 9 90 -2 39 -1 74 3
80 3 5 6 59 8 120 1 60 4 125 6 143 2 17 0 32 -4 32 -8 0 -4 73 5 89 4 6 3 11
-3 11 -5 0 -13 -5 -16 -10z m-285 -151 c0 -5 -4 -9 -10 -9 -5 0 -10 7 -10 16
0 8 5 12 10 9 6 -3 10 -10 10 -16z m-60 -19 c0 -5 -4 -10 -10 -10 -5 0 -10 5
-10 10 0 6 5 10 10 10 6 0 10 -4 10 -10z m-30 -4 c0 -3 -4 -8 -10 -11 -5 -3
-10 -1 -10 4 0 6 5 11 10 11 6 0 10 -2 10 -4z m296 -22 c4 -17 2 -29 -7 -35
-15 -10 -31 -8 -30 4 1 4 1 18 1 32 0 34 28 33 36 -1z m-216 -63 c17 27 22 -1
7 -33 -13 -25 -17 -28 -17 -13 0 11 -2 29 -4 40 -2 11 -1 14 1 6 4 -12 6 -12
13 0z m-141 -63 c1 -5 -3 -8 -9 -8 -5 0 -10 12 -9 28 0 24 1 25 9 7 5 -11 9
-23 9 -27z m-69 -57 c0 -11 3 -26 6 -35 3 -9 1 -16 -5 -16 -14 0 -34 48 -25
61 9 16 24 10 24 -10z m224 -98 c21 -61 19 -80 -7 -61 -11 9 -19 32 -22 73 -7
68 3 64 29 -12z m-1116 -38 c2 -11 9 -25 16 -30 7 -6 16 -21 20 -35 5 -18 5
-21 -3 -10 -5 8 -13 11 -17 7 -8 -8 -63 62 -64 81 0 22 44 10 48 -13z m715
-32 c-7 -2 -19 -2 -25 0 -7 3 -2 5 12 5 14 0 19 -2 13 -5z m471 -146 c2 -26 0
-47 -5 -47 -5 0 -9 5 -9 10 0 6 -5 10 -11 10 -31 0 -50 60 -33 103 4 12 10 11
29 -7 17 -16 26 -37 29 -69z m-1129 64 c3 -5 1 -12 -5 -16 -5 -3 -10 1 -10 9
0 18 6 21 15 7z m715 -44 c0 -20 -1 -20 -16 -5 -9 9 -13 21 -9 27 10 16 25 3
25 -22z m-700 -7 c0 -5 -4 -10 -10 -10 -5 0 -10 5 -10 10 0 6 5 10 10 10 6 0
10 -4 10 -10z m-130 -129 c0 -15 4 -31 9 -36 6 -6 6 -25 1 -45 -4 -19 -8 -27
-9 -18 -1 9 -9 21 -18 27 -15 8 -16 12 -4 34 7 14 10 30 6 36 -3 7 -11 26 -15
44 l-9 32 19 -24 c11 -13 20 -35 20 -50z m822 -51 c-4 -30 -22 -43 -22 -16 0
8 -3 21 -6 30 -4 11 0 16 13 16 16 0 19 -5 15 -30z m268 20 c8 -5 12 -11 9
-14 -3 -3 -14 1 -25 9 -21 16 -8 20 16 5z m286 -44 c6 -27 -2 -50 -16 -41 -4
3 -13 18 -18 35 -10 27 -9 30 8 30 12 0 22 -9 26 -24z m-336 -46 c0 -5 -4 -10
-10 -10 -5 0 -10 5 -10 10 0 6 5 10 10 10 6 0 10 -4 10 -10z m-683 -36 c-3 -3
-12 -4 -19 -1 -8 3 -5 6 6 6 11 1 17 -2 13 -5z m-317 -34 c0 -5 -4 -10 -10
-10 -5 0 -10 5 -10 10 0 6 5 10 10 10 6 0 10 -4 10 -10z m1020 -42 c0 -19 -2
-20 -10 -8 -13 19 -13 30 0 30 6 0 10 -10 10 -22z m182 0 c-7 -7 -12 -8 -12
-2 0 14 12 26 19 19 2 -3 -1 -11 -7 -17z m-902 -38 c-33 -26 -60 -26 -29 0 13
10 31 19 39 19 10 1 6 -6 -10 -19z m745 -28 c0 -18 -20 -15 -23 4 -3 10 1 15
10 12 7 -3 13 -10 13 -16z m-1128 -74 c11 -42 8 -68 -8 -68 -5 0 -10 5 -10 10
-1 6 -2 14 -3 19 0 5 -4 13 -8 17 -5 4 -8 20 -8 36 0 43 24 34 37 -14z m214
-24 c7 -9 20 -19 29 -23 13 -5 14 -10 4 -30 l-12 -24 -26 42 c-14 22 -26 43
-26 46 0 11 18 4 31 -11z m743 -80 c5 -14 4 -15 -9 -4 -17 14 -19 20 -6 20 5
0 12 -7 15 -16z m-734 -44 c0 -5 -5 -10 -11 -10 -5 0 -7 5 -4 10 3 6 8 10 11
10 2 0 4 -4 4 -10z m47 -52 c-3 -8 -6 -5 -6 6 -1 11 2 17 5 13 3 -3 4 -12 1
-19z m258 12 c3 -5 1 -10 -4 -10 -6 0 -11 5 -11 10 0 6 2 10 4 10 3 0 8 -4 11
-10z m500 -41 c-11 -17 -35 4 -35 30 l1 26 19 -24 c11 -12 18 -27 15 -32z
m-705 31 c0 -5 -4 -10 -10 -10 -5 0 -10 5 -10 10 0 6 5 10 10 10 6 0 10 -4 10
-10z m180 -74 c0 -9 -7 -12 -20 -9 -11 3 -17 9 -14 14 8 14 34 10 34 -5z m370
-23 c0 -29 -2 -29 -19 5 -10 18 -9 22 4 22 10 0 15 -9 15 -27z m-763 -18 c6
-14 8 -25 4 -25 -12 0 -31 23 -31 37 0 21 14 15 27 -12z m323 5 c0 -5 -4 -10
-10 -10 -5 0 -10 5 -10 10 0 6 5 10 10 10 6 0 10 -4 10 -10z m-32 -29 c3 -8
-1 -12 -9 -9 -7 2 -15 10 -17 17 -3 8 1 12 9 9 7 -2 15 -10 17 -17z m302 -12
c0 -6 -4 -7 -10 -4 -5 3 -10 11 -10 16 0 6 5 7 10 4 6 -3 10 -11 10 -16z
m-354 -92 c8 -16 14 -38 14 -49 0 -17 -2 -18 -15 -8 -8 7 -15 19 -15 26 0 8
-4 14 -8 14 -4 0 -8 21 -9 48 -1 41 0 44 9 22 5 -14 16 -38 24 -53z m258 -24
c-14 -64 -26 -71 -43 -22 -13 38 -7 49 25 49 21 0 24 -3 18 -27z m481 -23 c-3
-5 -10 -10 -16 -10 -5 0 -9 5 -9 10 0 6 7 10 16 10 8 0 12 -4 9 -10z m-55 -10
c0 -5 -5 -10 -11 -10 -5 0 -7 5 -4 10 3 6 8 10 11 10 2 0 4 -4 4 -10z m190 0
c0 -5 -4 -10 -10 -10 -5 0 -10 5 -10 10 0 6 5 10 10 10 6 0 10 -4 10 -10z
m-1062 -130 c10 -17 10 -20 -3 -20 -8 0 -15 2 -15 4 0 2 -3 11 -6 20 -9 23 9
20 24 -4z m1489 -66 c-3 -3 -12 -4 -19 -1 -8 3 -5 6 6 6 11 1 17 -2 13 -5z
m53 -114 c0 -5 -4 -10 -10 -10 -5 0 -10 5 -10 10 0 6 5 10 10 10 6 0 10 -4 10
-10z m-195 -10 c3 -5 1 -10 -4 -10 -6 0 -11 5 -11 10 0 6 2 10 4 10 3 0 8 -4
11 -10z m155 0 c0 -5 -5 -10 -11 -10 -5 0 -7 5 -4 10 3 6 8 10 11 10 2 0 4 -4
4 -10z m-111 -156 c8 -22 18 -34 26 -31 41 16 88 -140 61 -205 l-13 -30 -16
22 c-9 13 -14 26 -12 30 2 4 7 21 10 39 7 39 -29 106 -52 97 -8 -3 -11 -2 -8
4 3 5 -1 26 -10 46 -8 20 -15 43 -15 50 0 26 16 14 29 -22z m-214 -104 c3 -5
1 -10 -4 -10 -6 0 -11 5 -11 10 0 6 2 10 4 10 3 0 8 -4 11 -10z m541 -26 c3
-19 15 -39 25 -45 12 -6 19 -20 19 -37 0 -29 45 -86 61 -77 5 4 12 -2 16 -12
4 -9 19 -30 35 -45 15 -15 28 -34 28 -42 0 -8 10 -16 22 -18 19 -3 22 -10 23
-50 0 -27 -4 -48 -10 -48 -5 0 -31 -21 -57 -46 l-48 -46 -29 21 c-16 12 -34
21 -40 21 -6 0 -11 11 -11 25 0 18 -5 25 -19 25 -12 0 -21 -9 -25 -25 -6 -25
-20 -33 -30 -16 -3 5 1 14 9 21 18 15 20 30 3 30 -6 0 -19 7 -28 15 -15 14
-18 14 -30 0 -7 -8 -19 -15 -26 -15 -8 0 -14 -7 -14 -16 0 -13 -6 -15 -27 -9
-50 12 -58 28 -29 62 31 37 32 42 6 89 -18 32 -19 38 -7 53 8 9 12 21 10 28
-2 6 1 14 6 18 6 3 11 16 11 28 0 12 14 42 30 67 16 25 28 52 25 61 -4 13 4
16 45 17 49 1 49 0 56 -34z m-406 -72 c0 -23 -17 -4 -23 25 -5 26 -4 26 9 8 8
-10 14 -25 14 -33z m-49 -185 c6 -21 9 -41 6 -43 -8 -8 -48 57 -54 88 l-6 33
22 -19 c11 -11 26 -37 32 -59z m699 -197 c0 -5 -4 -10 -10 -10 -5 0 -10 5 -10
10 0 6 5 10 10 10 6 0 10 -4 10 -10z m-390 -10 c0 -5 -7 -10 -16 -10 -8 0 -12
5 -9 10 3 6 10 10 16 10 5 0 9 -4 9 -10z m170 -24 c0 -3 -4 -8 -10 -11 -5 -3
-10 -1 -10 4 0 6 5 11 10 11 6 0 10 -2 10 -4z"/>
<path d="M5375 7638 c-16 -5 -60 -10 -97 -12 -37 -1 -73 -8 -81 -14 -11 -10
-17 -9 -26 2 -12 14 -46 11 -68 -6 -17 -14 -73 -28 -73 -18 0 7 -54 -2 -100
-17 -8 -2 -17 -4 -20 -4 -3 -1 -9 -4 -15 -9 -5 -4 -28 -11 -50 -15 -22 -4 -52
-15 -67 -26 -15 -10 -34 -19 -43 -19 -8 0 -15 -7 -15 -16 0 -10 -5 -14 -15
-10 -9 3 -18 -1 -21 -9 -4 -8 -12 -15 -20 -15 -56 0 -264 -189 -264 -240 0
-16 -52 -70 -61 -64 -12 7 -50 -72 -43 -90 3 -8 -3 -28 -15 -44 -22 -32 -46
-124 -38 -146 3 -8 -1 -22 -8 -33 -18 -23 -19 -33 -2 -33 9 0 12 -21 11 -75
-1 -60 2 -79 17 -96 21 -25 23 -35 9 -44 -17 -10 -12 -45 7 -45 15 0 15 -1 -2
-14 -18 -13 -18 -13 1 -24 14 -8 19 -23 20 -69 1 -68 27 -138 46 -127 10 6 10
5 1 -7 -17 -21 2 -89 24 -89 13 0 14 -3 5 -12 -8 -8 -7 -18 8 -37 11 -16 17
-40 16 -61 -2 -24 4 -41 19 -56 15 -15 20 -32 19 -60 -1 -22 6 -50 15 -64 36
-54 47 -83 34 -87 -14 -5 -8 -49 10 -71 5 -7 7 -15 4 -19 -4 -3 -2 -12 3 -19
6 -6 10 -16 9 -20 -2 -15 13 -54 21 -54 3 0 7 -19 8 -41 1 -23 8 -49 14 -57 7
-8 13 -20 13 -26 2 -29 19 -92 28 -103 5 -7 6 -13 1 -13 -5 0 0 -7 11 -16 12
-9 20 -28 22 -50 1 -20 10 -45 19 -55 10 -12 14 -27 10 -42 -3 -14 2 -49 11
-78 20 -64 18 -57 28 -94 11 -39 34 -75 49 -75 14 0 41 -39 41 -60 1 -40 30
-140 42 -140 7 0 13 -10 13 -22 0 -13 9 -34 20 -48 11 -14 20 -30 20 -36 0
-20 121 -134 141 -134 11 0 22 -7 25 -15 4 -9 19 -15 40 -15 26 0 34 -4 34
-17 1 -35 137 -82 155 -53 4 6 13 7 23 1 9 -4 22 -6 29 -4 6 2 14 -1 18 -6 3
-6 22 -11 41 -11 19 0 34 -4 34 -9 0 -5 11 -8 25 -8 14 0 25 2 25 6 0 7 51 8
65 0 31 -17 285 18 285 39 0 4 22 7 49 7 33 0 55 6 68 18 11 9 26 17 35 17 8
0 25 11 37 24 13 13 39 27 59 31 21 4 51 15 68 26 17 10 38 19 46 19 8 0 29
11 48 25 19 14 43 25 55 25 11 0 26 9 33 20 7 11 16 20 21 20 5 0 30 22 57 48
107 104 179 207 167 238 -3 8 9 27 27 44 17 16 33 40 35 52 2 13 7 42 11 66 4
23 11 45 15 48 12 7 12 84 0 84 -5 0 -29 -24 -53 -52 -40 -47 -50 -53 -88 -56
-30 -2 -48 -9 -57 -22 -18 -26 -43 -26 -43 0 0 11 7 20 16 20 8 0 13 4 9 10
-3 5 -13 6 -22 3 -11 -4 -14 -2 -11 8 3 8 13 16 24 17 28 6 39 19 26 35 -17
20 -4 56 19 50 24 -7 25 12 2 21 -15 6 -13 11 15 32 18 14 32 32 32 40 0 11 7
13 27 8 22 -6 25 -4 19 11 -3 10 -1 24 6 33 11 13 10 14 -9 4 -31 -17 -35 -15
-16 8 10 11 23 20 30 20 23 0 40 44 38 100 -2 30 -4 56 -5 58 -1 1 -3 6 -4 11
0 5 -4 13 -8 17 -5 4 -8 17 -8 29 0 12 -9 34 -20 48 -15 18 -17 27 -8 30 9 3
1 17 -22 41 -19 21 -35 47 -36 59 0 12 -4 32 -8 45 -6 16 -3 22 8 22 17 0 22
15 7 24 -5 3 -12 22 -15 41 -4 19 -13 35 -20 35 -7 0 -48 -11 -90 -25 -42 -14
-82 -25 -88 -25 -6 0 -19 -7 -29 -16 -9 -8 -27 -15 -40 -16 -37 -1 -102 -19
-118 -31 -7 -6 -25 -13 -39 -15 -24 -3 -37 -13 -45 -35 -1 -5 -29 -9 -62 -11
-33 -1 -66 -5 -72 -9 -7 -5 -17 -6 -23 -2 -5 3 -24 -1 -42 -8 -18 -8 -57 -20
-86 -26 -56 -14 -69 -25 -54 -44 5 -7 17 -44 27 -84 9 -39 23 -74 30 -76 7 -3
16 -23 20 -44 4 -21 10 -42 14 -48 16 -22 43 -157 37 -185 -4 -22 -2 -30 9
-30 11 0 15 -12 15 -46 0 -38 3 -45 16 -40 10 4 13 2 8 -6 -4 -6 -8 -46 -9
-88 -2 -85 -7 -100 -36 -100 -12 0 -19 -7 -19 -19 0 -22 -19 -38 -29 -25 -3 5
-30 10 -60 11 -55 3 -101 30 -101 60 0 8 -6 16 -14 19 -8 3 -17 20 -20 39 -4
18 -13 39 -21 45 -9 8 -13 21 -10 31 4 13 1 19 -9 19 -9 0 -16 6 -16 14 0 8
-7 17 -16 20 -13 5 -14 9 -5 20 10 11 7 33 -10 98 -12 46 -27 97 -34 113 -8
17 -16 47 -20 68 -4 20 -13 41 -21 45 -7 4 -15 28 -18 52 -5 53 -16 101 -26
115 -4 6 -11 25 -15 43 -6 29 -25 46 -25 22 0 -6 -8 -13 -17 -17 -10 -3 -25
-12 -33 -19 -13 -11 -15 -7 -17 27 -2 21 2 39 7 39 15 0 12 37 -4 52 -19 20
-32 79 -16 76 7 -2 15 3 18 11 3 8 0 11 -7 7 -6 -4 -11 -3 -11 1 0 5 9 14 20
21 24 14 26 32 5 32 -8 0 -15 9 -15 20 0 11 -5 20 -11 20 -6 0 -8 7 -5 16 4
10 0 21 -10 28 -11 9 -16 31 -18 78 -1 67 -7 83 -29 83 -7 0 -11 10 -9 23 2
12 -2 22 -8 22 -7 0 -9 8 -5 19 3 11 1 22 -5 26 -5 3 -10 15 -10 26 0 11 -6
22 -12 24 -18 7 -19 55 -2 55 15 0 19 16 5 24 -4 3 -14 34 -21 68 -8 35 -20
74 -27 88 -7 14 -13 33 -13 42 0 9 -4 20 -10 23 -5 3 -10 21 -10 39 0 17 -5
37 -12 44 -8 8 -8 15 1 26 10 11 9 16 -5 24 -10 6 -17 25 -19 55 -2 25 -6 50
-9 55 -12 19 49 112 73 112 5 0 14 14 21 30 13 31 24 37 35 20 4 -6 15 -6 33
1 22 8 29 7 40 -8 11 -16 14 -16 22 -3 5 8 10 10 10 4 0 -5 -6 -16 -12 -22
-10 -10 -8 -14 10 -18 13 -4 22 -14 22 -25 0 -11 6 -22 14 -25 8 -3 22 -32 32
-65 10 -32 21 -59 26 -59 4 0 8 -9 8 -20 0 -11 4 -20 9 -20 11 0 19 -19 37
-90 8 -30 18 -64 23 -75 4 -11 16 -37 25 -59 13 -28 14 -41 5 -52 -6 -7 -7
-19 -3 -26 5 -7 9 -17 9 -23 0 -5 9 -28 19 -50 11 -22 18 -50 17 -63 -1 -12 5
-36 13 -54 9 -17 19 -49 23 -70 4 -31 9 -38 22 -33 9 4 45 16 81 27 36 12 71
26 78 32 8 5 21 11 30 11 10 1 37 5 62 9 42 8 59 14 145 52 19 8 40 12 46 9 5
-4 15 -2 22 3 7 5 46 17 87 27 41 10 80 21 85 25 6 4 35 13 65 20 31 7 64 18
74 26 18 12 18 15 2 48 -9 19 -16 43 -16 55 0 12 -5 21 -11 21 -6 0 -8 7 -5
16 4 9 -1 25 -9 34 -9 10 -15 21 -13 26 4 14 -13 86 -27 119 -7 17 -18 53 -25
80 -6 28 -20 65 -31 83 -10 18 -19 38 -19 45 0 6 -11 23 -25 37 -17 18 -26 41
-29 72 -3 25 -9 55 -15 67 -6 12 -15 30 -21 41 -6 11 -10 25 -10 32 0 16 -38
52 -63 61 -13 5 -16 13 -12 26 4 14 -5 31 -32 60 -20 23 -41 41 -46 41 -4 0
-22 13 -40 30 -18 16 -37 30 -44 30 -7 0 -33 14 -58 31 -25 17 -49 28 -52 25
-4 -3 -17 1 -31 10 -13 8 -42 16 -65 17 -23 1 -45 6 -48 10 -9 12 -169 16
-204 5z m275 -88 c0 -5 -4 -10 -10 -10 -5 0 -10 5 -10 10 0 6 5 10 10 10 6 0
10 -4 10 -10z m-260 -116 c0 -7 3 -19 6 -28 3 -9 2 -16 -3 -16 -10 0 -33 58
-33 81 1 18 30 -19 30 -37z m-147 -47 c-8 -12 -33 20 -33 42 1 12 6 10 20 -8
11 -12 17 -28 13 -34z m421 -23 c8 -22 -4 -40 -15 -23 -11 18 -11 39 0 39 5 0
12 -7 15 -16z m303 -100 c1 -10 7 -39 13 -63 15 -59 7 -74 -12 -25 -26 64 -34
118 -17 112 8 -3 15 -13 16 -24z m-574 -56 c4 -12 4 -24 1 -27 -6 -7 -24 20
-24 37 0 21 17 13 23 -10z m-393 -60 c12 -16 15 -27 9 -35 -7 -7 -6 -14 1 -18
13 -8 3 -25 -14 -25 -14 0 -39 77 -30 92 8 12 14 10 34 -14z m-393 -14 c-9 -9
-28 6 -21 18 4 6 10 6 17 -1 6 -6 8 -13 4 -17z m1413 -113 c7 -13 7 -22 0 -26
-14 -9 -27 1 -33 25 -7 26 19 27 33 1z m-1275 -21 c-3 -5 -11 -10 -16 -10 -6
0 -7 5 -4 10 3 6 11 10 16 10 6 0 7 -4 4 -10z m85 0 c0 -5 -4 -10 -10 -10 -5
0 -10 5 -10 10 0 6 5 10 10 10 6 0 10 -4 10 -10z m37 -112 c11 -24 24 -60 27
-81 7 -36 6 -38 -13 -27 -13 7 -23 25 -27 50 -4 21 -15 47 -25 56 -14 13 -16
20 -6 34 14 24 18 21 44 -32z m-290 10 c-3 -8 -6 -5 -6 6 -1 11 2 17 5 13 3
-3 4 -12 1 -19z m1508 -55 c3 -27 10 -56 16 -65 11 -22 1 -23 -26 -2 -15 11
-17 17 -8 22 10 6 10 17 3 42 -12 43 -12 50 -1 50 6 0 13 -21 16 -47z m-559
-41 c4 -19 2 -32 -4 -32 -17 0 -29 23 -34 63 -4 36 -3 37 14 20 10 -10 20 -33
24 -51z m194 -17 c0 -8 -4 -15 -9 -15 -13 0 -22 16 -14 24 11 11 23 6 23 -9z
m265 -41 c8 -45 3 -50 -29 -29 -25 17 -29 45 -11 75 11 18 32 -7 40 -46z
m-1475 42 c0 -3 -4 -8 -10 -11 -5 -3 -10 -1 -10 4 0 6 5 11 10 11 6 0 10 -2
10 -4z m1143 -46 c4 -15 0 -20 -14 -20 -10 0 -19 6 -19 14 0 8 -3 22 -7 31 -5
15 -3 16 14 6 11 -5 23 -20 26 -31z m97 30 c0 -5 -2 -10 -4 -10 -3 0 -8 5 -11
10 -3 6 -1 10 4 10 6 0 11 -4 11 -10z m-1311 -92 c13 -56 14 -68 3 -68 -9 0
-42 70 -42 88 0 7 -5 12 -10 12 -7 0 -7 7 1 21 9 18 13 19 24 8 7 -8 17 -35
24 -61z m1161 -28 c0 -5 -4 -10 -10 -10 -5 0 -10 5 -10 10 0 6 5 10 10 10 6 0
10 -4 10 -10z m54 -96 c9 -26 13 -50 10 -55 -11 -19 -22 -7 -28 33 -4 23 -12
45 -18 49 -6 4 -7 12 -4 18 11 18 23 5 40 -45z m234 27 c3 -8 -1 -12 -9 -9 -7
2 -15 10 -17 17 -3 8 1 12 9 9 7 -2 15 -10 17 -17z m210 -3 c16 -20 18 -50 5
-55 -7 -3 -13 2 -13 11 0 9 -4 16 -10 16 -5 0 -10 9 -10 20 0 23 13 26 28 8z
m-1582 -35 c7 -10 14 -25 14 -34 0 -9 7 -22 15 -29 19 -16 19 -40 0 -40 -9 0
-19 17 -26 45 -6 25 -15 48 -20 51 -10 6 -12 24 -3 24 4 0 13 -8 20 -17z m414
-27 c0 -8 -6 -16 -13 -19 -8 -3 -13 3 -13 14 0 11 6 19 13 19 7 0 13 -6 13
-14z m-253 -117 c6 -6 9 -18 6 -25 -3 -8 2 -33 11 -56 12 -29 14 -44 6 -52
-17 -17 -44 33 -47 91 -3 53 3 63 24 42z m262 -54 c2 -11 10 -24 18 -30 14
-10 25 -95 12 -95 -8 0 -52 87 -56 110 -1 8 -7 16 -12 18 -21 7 -11 23 11 20
13 -2 24 -11 27 -23z m626 -35 c-3 -5 -11 -10 -16 -10 -6 0 -7 5 -4 10 3 6 11
10 16 10 6 0 7 -4 4 -10z m-1018 -78 c4 -27 -18 -75 -30 -63 -7 7 -6 23 3 51
13 40 21 44 27 12z m298 -99 c22 -74 26 -93 17 -93 -5 0 -16 26 -26 58 -10 31
-21 63 -24 71 -3 8 0 12 8 9 7 -2 19 -23 25 -45z m-335 27 c0 -5 -4 -10 -10
-10 -5 0 -10 5 -10 10 0 6 5 10 10 10 6 0 10 -4 10 -10z m608 -224 c3 -12 -1
-17 -10 -14 -7 3 -15 13 -16 22 -3 12 1 17 10 14 7 -3 15 -13 16 -22z m1272
-77 c0 -5 -7 -9 -15 -9 -15 0 -20 12 -9 23 8 8 24 -1 24 -14z m-500 -116 c0
-18 -5 -24 -17 -21 -17 3 -36 54 -27 70 10 15 44 -24 44 -49z m-1101 0 c5 -21
13 -50 17 -66 3 -15 10 -30 15 -32 12 -8 -1 -35 -17 -35 -16 0 -47 56 -39 70
3 5 2 24 -3 42 -5 18 -7 39 -5 46 8 23 22 12 32 -25z m548 21 c-3 -3 -12 -4
-19 -1 -8 3 -5 6 6 6 11 1 17 -2 13 -5z m-437 -43 c0 -9 5 -22 11 -28 8 -8 8
-13 -1 -18 -15 -9 -16 -7 -24 38 -5 27 -4 37 3 32 6 -3 11 -14 11 -24z m318
-61 c1 -33 -9 -38 -28 -15 -7 8 -18 15 -26 15 -7 0 -16 5 -19 10 -4 7 2 9 18
5 14 -4 28 -2 31 4 13 20 23 11 24 -19z m1075 -19 c4 -18 6 -38 4 -44 -4 -14
-22 17 -31 56 -10 42 16 30 27 -12z m-161 -7 c-7 -12 -11 -13 -17 -4 -4 7 -2
16 6 21 18 11 23 4 11 -17z m-1450 -71 c29 -85 30 -93 15 -93 -9 0 -18 19 -25
53 -6 28 -14 60 -17 70 -4 9 -3 17 2 17 5 0 16 -21 25 -47z m241 -33 c6 -23
-10 -37 -24 -23 -10 10 -2 43 11 43 4 0 10 -9 13 -20z m437 -6 c0 -8 -4 -12
-10 -9 -5 3 -10 10 -10 16 0 5 5 9 10 9 6 0 10 -7 10 -16z m-97 -25 c4 -16 3
-18 -9 -8 -16 13 -19 29 -5 29 5 0 11 -9 14 -21z m-415 -72 c3 -20 0 -25 -11
-21 -16 6 -18 56 -2 51 6 -2 11 -16 13 -30z m1052 23 c0 -5 -4 -10 -10 -10 -5
0 -10 5 -10 10 0 6 5 10 10 10 6 0 10 -4 10 -10z m-945 -20 c3 -5 1 -10 -4
-10 -6 0 -11 5 -11 10 0 6 2 10 4 10 3 0 8 -4 11 -10z m1211 -44 l7 -28 -27
17 c-16 11 -25 24 -22 32 4 8 6 20 6 26 0 20 28 -17 36 -47z m-1196 -1 c0 -8
-4 -15 -10 -15 -5 0 -10 7 -10 15 0 8 5 15 10 15 6 0 10 -7 10 -15z m90 5 c0
-5 -4 -10 -10 -10 -5 0 -10 5 -10 10 0 6 5 10 10 10 6 0 10 -4 10 -10z m31
-91 c7 -15 8 -24 0 -32 -7 -7 -13 -2 -21 17 -12 34 -12 36 0 36 5 0 14 -9 21
-21z m1339 -59 c0 -5 -2 -10 -4 -10 -3 0 -8 5 -11 10 -3 6 -1 10 4 10 6 0 11
-4 11 -10z m-1285 -50 c0 -7 -6 -15 -12 -17 -8 -3 -13 4 -13 17 0 13 5 20 13
18 6 -3 12 -11 12 -18z m165 -56 c0 -8 -4 -14 -10 -14 -5 0 -10 9 -10 21 0 11
5 17 10 14 6 -3 10 -13 10 -21z m1047 -46 c-3 -8 -6 -5 -6 6 -1 11 2 17 5 13
3 -3 4 -12 1 -19z m-427 -68 c0 -5 -4 -10 -10 -10 -5 0 -10 5 -10 10 0 6 5 10
10 10 6 0 10 -4 10 -10z m-515 -81 c16 -30 13 -52 -4 -33 -10 11 -24 64 -16
64 2 0 12 -14 20 -31z m-355 -8 c5 -11 10 -25 10 -32 0 -18 -27 7 -33 31 -7
26 9 26 23 1z m1200 -17 c0 -8 -5 -12 -10 -9 -6 4 -8 11 -5 16 9 14 15 11 15
-7z m-81 -107 c1 -5 -3 -5 -9 -2 -5 3 -10 16 -9 28 0 21 1 21 9 2 5 -11 9 -24
9 -28z m-719 13 l20 -20 -20 0 c-11 0 -20 2 -20 4 0 2 -3 11 -6 20 -8 22 2 20
26 -4z m510 -50 c0 -5 -5 -10 -11 -10 -5 0 -7 5 -4 10 3 6 8 10 11 10 2 0 4
-4 4 -10z m150 -59 c0 -6 -5 -13 -11 -17 -8 -4 -8 -9 0 -17 6 -6 11 -22 11
-36 0 -23 -1 -24 -20 -6 -12 11 -20 31 -20 52 0 26 4 33 20 33 11 0 20 -4 20
-9z m-187 -53 c4 -12 4 -25 1 -28 -8 -7 -34 31 -28 41 9 16 22 10 27 -13z
m-283 -22 c0 -3 -4 -8 -10 -11 -5 -3 -10 -1 -10 4 0 6 5 11 10 11 6 0 10 -2
10 -4z m-268 -36 c0 -11 1 -25 2 -32 1 -6 -4 -13 -10 -15 -12 -4 -26 46 -17
59 9 15 23 8 25 -12z m-139 -45 c3 -16 0 -24 -7 -22 -14 4 -21 47 -8 47 5 0
12 -11 15 -25z m659 -57 c-7 -7 -12 -8 -12 -2 0 14 12 26 19 19 2 -3 -1 -11
-7 -17z m-697 2 c3 -5 1 -10 -4 -10 -6 0 -11 5 -11 10 0 6 2 10 4 10 3 0 8 -4
11 -10z"/>
<path d="M3456 7062 c-3 -5 -31 -14 -63 -21 -32 -7 -62 -17 -68 -21 -5 -4 -26
-11 -45 -15 -19 -4 -39 -10 -45 -14 -5 -4 -21 -8 -35 -9 -13 0 -31 -9 -40 -20
-20 -24 -67 -44 -75 -32 -10 16 -43 12 -53 -6 -5 -10 -12 -12 -15 -7 -4 7 -27
4 -63 -8 -32 -11 -63 -19 -71 -19 -7 0 -22 -4 -33 -10 -11 -5 -29 -14 -40 -20
-11 -5 -33 -10 -48 -10 -16 0 -32 -3 -36 -7 -3 -4 -12 -8 -19 -10 -83 -20
-147 -41 -169 -56 -14 -10 -50 -20 -79 -23 -28 -2 -57 -8 -63 -13 -6 -5 -22
-11 -36 -13 -22 -3 -25 -9 -28 -45 -2 -29 1 -43 9 -43 7 0 9 -3 6 -7 -4 -3 0
-14 8 -23 13 -14 13 -22 4 -46 -15 -37 -19 -83 -8 -90 5 -3 9 -14 9 -24 0 -14
5 -18 18 -13 14 5 15 3 5 -8 -19 -19 -17 -79 2 -79 8 0 15 -4 15 -10 0 -5 -4
-10 -8 -10 -10 0 -4 -139 8 -165 8 -19 13 -50 27 -155 3 -25 13 -51 22 -58 15
-12 15 -14 -2 -23 -13 -8 -15 -14 -7 -30 6 -10 8 -19 4 -19 -3 0 -1 -6 5 -14
8 -10 9 -16 2 -21 -7 -4 -5 -14 5 -30 11 -16 14 -34 9 -55 -5 -25 -4 -30 12
-30 27 0 43 -67 31 -126 -11 -50 14 -277 32 -299 8 -9 8 -15 0 -20 -8 -5 -8
-10 0 -20 6 -8 11 -32 12 -55 0 -29 6 -43 19 -51 20 -10 26 -44 9 -54 -7 -4
-4 -19 10 -42 14 -24 17 -39 11 -51 -6 -10 -4 -34 6 -65 8 -27 12 -55 9 -63
-3 -8 -1 -26 5 -41 6 -17 6 -30 0 -36 -12 -12 -2 -77 15 -97 7 -8 12 -32 11
-53 -1 -27 4 -42 16 -48 12 -7 15 -18 10 -39 -4 -22 -1 -31 11 -36 9 -3 13
-10 10 -15 -7 -12 17 -118 28 -125 4 -3 1 -16 -8 -29 -13 -20 -15 -44 -11
-118 2 -51 10 -103 16 -115 6 -12 14 -52 17 -90 3 -37 9 -82 14 -99 4 -18 6
-41 3 -52 -2 -10 0 -22 6 -25 5 -4 8 -13 4 -21 -3 -9 1 -15 9 -15 10 0 15 -10
16 -27 1 -41 13 -92 28 -121 8 -17 10 -30 4 -37 -14 -16 0 -27 17 -14 7 6 13
8 13 4 0 -5 8 -1 18 8 9 9 42 19 72 22 30 4 59 10 65 15 5 4 44 16 85 25 41
10 82 23 90 29 8 7 29 13 45 14 17 2 38 12 47 24 13 15 32 20 72 22 38 1 62 8
76 21 11 10 40 20 63 22 23 2 54 12 68 23 16 11 35 17 48 13 29 -7 54 4 44 19
-10 17 -11 19 -29 113 -9 44 -20 89 -24 100 -5 11 -12 31 -16 45 -4 14 -18 39
-31 56 -24 32 -26 43 -21 149 l3 60 65 17 c36 10 66 22 68 28 2 5 8 10 14 10
6 0 35 12 65 27 60 31 85 25 91 -18 2 -13 13 -34 24 -46 13 -14 21 -38 22 -70
2 -38 9 -55 30 -76 16 -16 32 -24 39 -20 7 4 7 0 -1 -10 -16 -19 -7 -56 17
-73 13 -10 13 -14 2 -28 -11 -13 -11 -17 3 -22 9 -3 14 -9 12 -13 -3 -4 0 -28
6 -54 9 -44 11 -47 42 -47 20 0 43 9 58 23 32 28 39 30 120 32 37 0 73 7 82
14 8 7 24 10 36 6 12 -4 27 -1 35 5 8 6 19 9 24 6 14 -9 103 14 124 32 9 8 17
12 17 9 0 -3 25 5 56 19 31 14 88 29 126 34 39 4 75 13 81 19 6 6 21 11 33 11
13 0 26 5 29 10 3 6 -1 10 -10 10 -11 0 -15 5 -12 15 4 8 2 17 -3 20 -6 4 -10
15 -10 26 0 11 -7 22 -16 26 -8 3 -13 12 -10 19 3 7 -6 27 -19 43 -14 16 -25
39 -25 50 0 12 -7 24 -15 27 -8 4 -15 18 -15 34 0 15 -9 35 -20 45 -11 10 -20
29 -20 42 0 14 -6 23 -16 23 -10 0 -14 6 -11 14 3 8 -1 20 -8 26 -8 7 -17 28
-21 49 -4 20 -15 48 -25 63 -11 14 -22 40 -25 57 -4 16 -12 32 -20 35 -8 3
-14 15 -14 27 0 11 -9 33 -19 48 -11 15 -23 39 -26 54 -4 14 -13 31 -21 38 -8
6 -14 20 -14 30 0 11 -4 19 -9 19 -5 0 -12 16 -15 35 -4 22 -13 35 -22 35 -8
0 -20 14 -26 30 -5 17 -19 35 -30 41 -12 6 -17 17 -14 26 11 27 -5 61 -31 68
-17 4 -23 11 -19 21 3 9 3 21 -1 27 -8 13 -14 34 -15 57 0 8 -4 20 -8 25 -5 6
-11 27 -15 48 -4 21 -13 41 -21 44 -7 2 -16 17 -19 33 -3 16 -12 34 -20 40 -7
6 -16 26 -19 45 -4 19 -15 39 -26 45 -11 6 -17 16 -14 24 3 7 -9 37 -26 66
-17 29 -34 65 -37 81 -3 16 -12 34 -19 40 -8 6 -14 17 -14 24 0 7 -6 15 -13
18 -7 3 -19 30 -27 60 -7 31 -19 58 -27 61 -8 3 -11 11 -8 17 4 5 0 18 -8 27
-8 9 -18 28 -22 42 -4 14 -16 37 -26 52 -11 14 -19 35 -19 46 0 11 -7 22 -14
25 -8 3 -18 22 -21 41 -4 19 -13 37 -20 40 -8 3 -17 21 -21 40 -3 20 -10 36
-15 36 -5 0 -9 8 -9 19 0 10 -12 31 -27 47 -15 16 -26 37 -25 47 2 9 -1 17 -6
17 -6 0 -13 18 -17 41 -4 22 -13 43 -21 46 -8 3 -14 11 -14 19 0 8 -5 14 -10
14 -14 0 -80 138 -80 167 0 24 -3 31 -38 100 -12 23 -22 49 -22 57 0 10 -9 16
-21 16 -17 0 -19 3 -10 13 6 8 8 17 4 20 -9 10 -31 9 -37 -1z m-76 -163 c0
-22 -3 -38 -8 -36 -4 3 -6 20 -5 39 2 39 2 38 8 38 3 0 5 -18 5 -41z m78 -204
c15 -33 23 -75 15 -75 -5 0 -14 15 -21 33 -7 17 -18 40 -23 49 -5 10 -9 28 -9
40 0 23 0 23 15 -2 8 -14 18 -34 23 -45z m-410 -61 c-10 -10 -28 6 -28 24 0
15 1 15 17 -1 9 -9 14 -19 11 -23z m149 14 c-3 -8 -6 -5 -6 6 -1 11 2 17 5 13
3 -3 4 -12 1 -19z m-797 -38 c0 -5 -2 -10 -4 -10 -3 0 -8 5 -11 10 -3 6 -1 10
4 10 6 0 11 -4 11 -10z m832 -52 c10 1 17 -7 21 -25 6 -34 1 -43 -22 -43 -18
0 -32 45 -30 95 1 16 2 15 8 -5 4 -15 14 -24 23 -22z m333 -6 c-3 -3 -5 0 -5
6 0 6 -6 9 -14 6 -7 -3 -16 2 -20 11 -3 9 -2 13 3 10 5 -3 13 0 17 7 5 7 10 4
16 -12 5 -12 6 -25 3 -28z m-890 -93 c-3 -4 -1 -10 5 -14 7 -4 6 -13 -1 -27
-15 -27 -26 -13 -35 42 l-7 45 21 -19 c12 -10 19 -22 17 -27z m649 -119 c-10
-9 -34 34 -33 59 1 23 3 22 19 -14 10 -22 16 -42 14 -45z m386 15 c0 -5 -5 -3
-10 5 -5 8 -10 20 -10 25 0 6 5 3 10 -5 5 -8 10 -19 10 -25z m-645 -44 c3 -5
1 -12 -5 -16 -5 -3 -10 1 -10 9 0 18 6 21 15 7z m270 -11 c-3 -5 -11 -10 -16
-10 -6 0 -7 5 -4 10 3 6 11 10 16 10 6 0 7 -4 4 -10z m317 -17 c3 -27 -11 -73
-22 -73 -3 0 -11 19 -17 42 -9 32 -9 45 0 50 23 14 36 8 39 -19z m-792 -7 c0
-3 -4 -8 -10 -11 -5 -3 -10 -1 -10 4 0 6 5 11 10 11 6 0 10 -2 10 -4z m-81
-72 c7 -26 9 -49 6 -52 -11 -11 -24 14 -31 62 -9 62 9 55 25 -10z m-229 16 c0
-5 -4 -10 -10 -10 -5 0 -10 5 -10 10 0 6 5 10 10 10 6 0 10 -4 10 -10z m613
-59 c4 -18 14 -34 22 -38 8 -3 15 -12 15 -20 0 -9 6 -12 18 -9 17 6 18 5 23
-74 1 -16 7 -30 12 -30 5 0 7 -11 5 -25 -4 -17 -1 -25 9 -25 9 0 13 -6 10 -13
-6 -17 15 -100 31 -119 6 -8 9 -17 6 -21 -3 -3 4 -10 15 -17 13 -6 21 -21 21
-35 0 -28 9 -31 29 -12 11 10 12 9 7 -1 -4 -7 -2 -19 4 -27 6 -8 9 -18 6 -24
-3 -5 1 -12 10 -15 9 -4 12 -11 7 -18 -14 -24 -12 -68 4 -68 10 0 13 -6 9 -15
-3 -9 -2 -23 3 -33 44 -86 62 -133 57 -150 -4 -11 2 -29 14 -45 11 -14 20 -32
20 -41 0 -9 7 -19 15 -22 10 -4 13 -13 10 -25 -4 -11 -2 -19 2 -19 5 0 15 -16
23 -35 8 -19 19 -35 25 -35 7 0 12 -14 13 -31 0 -17 7 -38 15 -48 8 -9 17 -26
20 -39 5 -21 2 -23 -31 -22 -37 1 -53 -1 -82 -13 -8 -3 -35 -11 -60 -17 -25
-6 -55 -16 -67 -22 -12 -6 -28 -8 -35 -6 -12 5 -34 82 -43 153 -2 17 -4 30 -5
30 -6 0 -32 154 -31 184 0 12 -5 37 -13 55 -15 32 -29 120 -27 168 1 17 -7 35
-19 45 -11 10 -20 25 -20 35 0 10 -4 18 -9 18 -5 0 -8 57 -8 128 2 93 -2 133
-11 145 -9 11 -10 17 -2 22 8 5 7 11 -2 22 -12 14 -19 73 -18 146 0 15 -4 27
-9 27 -5 0 -11 8 -15 18 -3 9 -10 27 -15 39 -9 20 -8 21 12 14 12 -5 25 -21
30 -40z m512 9 c3 -5 1 -10 -4 -10 -6 0 -11 5 -11 10 0 6 2 10 4 10 3 0 8 -4
11 -10z m-604 -55 c10 -27 17 -51 14 -53 -10 -10 -23 11 -30 45 -4 21 -12 44
-18 52 -9 11 -9 13 2 10 7 -3 22 -27 32 -54z m-501 30 c0 -8 -4 -15 -10 -15
-5 0 -10 7 -10 15 0 8 5 15 10 15 6 0 10 -7 10 -15z m-56 -21 c3 -9 6 -23 6
-31 0 -14 -3 -14 -20 2 -11 10 -20 24 -20 32 0 18 27 16 34 -3z m1285 -68 c6
-25 7 -45 1 -55 -8 -14 -9 -13 -10 3 0 11 -9 30 -21 42 -17 19 -19 26 -9 44
14 27 25 18 39 -34z m-244 -76 c3 -5 -3 -10 -14 -10 -12 0 -21 5 -21 10 0 6 6
10 14 10 8 0 18 -4 21 -10z m-505 -40 c0 -5 -7 -10 -15 -10 -8 0 -15 5 -15 10
0 6 7 10 15 10 8 0 15 -4 15 -10z m-222 -57 c4 -38 -14 -45 -27 -10 -5 12 -12
21 -17 19 -5 -2 -10 3 -12 11 -2 10 6 14 25 13 24 -1 28 -6 31 -33z m232 -113
c0 -5 -2 -10 -4 -10 -3 0 -8 5 -11 10 -3 6 -1 10 4 10 6 0 11 -4 11 -10z
m-324 -33 c3 -35 -22 -37 -28 -2 -3 13 -3 27 0 30 12 11 25 -2 28 -28z m1139
-14 c6 -32 3 -39 -22 -59 -15 -12 -30 -20 -32 -18 -3 2 3 10 12 17 10 7 16 26
15 47 0 46 0 50 11 50 5 0 12 -16 16 -37z m-808 -30 c1 -32 -1 -43 -8 -36 -6
6 -11 17 -12 24 -2 8 -6 20 -11 27 -8 13 12 47 22 37 3 -3 7 -26 9 -52z m-287
-57 c0 -2 -11 -6 -24 -8 -19 -4 -22 -1 -19 13 4 15 9 16 24 8 10 -5 19 -11 19
-13z m1020 4 c0 -5 -4 -10 -10 -10 -5 0 -10 5 -10 10 0 6 5 10 10 10 6 0 10
-4 10 -10z m72 -35 c4 -17 1 -25 -8 -25 -8 0 -14 4 -14 9 0 5 -3 16 -6 25 -4
10 -1 16 9 16 8 0 17 -11 19 -25z m-1134 -30 c-3 -3 -9 2 -12 12 -6 14 -5 15
5 6 7 -7 10 -15 7 -18z m992 -40 c0 -7 14 -29 30 -50 23 -29 30 -33 30 -19 1
17 3 16 21 -5 13 -16 17 -27 10 -34 -7 -7 -7 -15 -1 -22 7 -9 6 -16 -4 -25
-13 -10 -19 -6 -36 22 -11 18 -20 41 -20 50 0 9 -11 27 -24 40 -14 13 -28 37
-32 53 -7 27 -6 29 9 16 10 -7 17 -19 17 -26z m125 15 c3 -5 -1 -10 -9 -10 -9
0 -16 5 -16 10 0 6 4 10 9 10 6 0 13 -4 16 -10z m-898 -116 c-12 -13 -37 6
-37 28 l0 22 22 -21 c12 -13 19 -25 15 -29z m151 -28 c-5 -25 -34 1 -42 39
l-7 30 26 -26 c15 -15 25 -34 23 -43z m-44 -55 c-4 -19 0 -38 10 -52 18 -26
21 -49 6 -49 -11 0 -30 64 -30 103 0 15 4 27 10 27 5 0 7 -13 4 -29z m636 -27
c0 -8 -5 -12 -10 -9 -6 4 -8 11 -5 16 9 14 15 11 15 -7z m400 -68 c0 -3 -4 -8
-10 -11 -5 -3 -10 -1 -10 4 0 6 5 11 10 11 6 0 10 -2 10 -4z m-894 -34 c-9 -9
-37 8 -31 18 5 8 11 7 21 -1 8 -6 12 -14 10 -17z m450 -49 c-10 -10 -19 5 -10
18 6 11 8 11 12 0 2 -7 1 -15 -2 -18z m-727 3 c8 -9 8 -16 2 -20 -6 -4 -15 3
-21 14 -12 23 2 27 19 6z m-106 -93 c14 -49 12 -78 -4 -67 -5 3 -7 10 -3 15 3
5 1 15 -4 22 -5 7 -13 27 -17 45 -11 51 12 39 28 -15z m1057 -43 c0 -5 -2 -10
-4 -10 -3 0 -8 5 -11 10 -3 6 -1 10 4 10 6 0 11 -4 11 -10z m-1040 -72 c0 -16
-3 -19 -11 -11 -6 6 -8 16 -5 22 11 17 16 13 16 -11z m125 -48 c4 -26 13 -41
26 -45 27 -9 24 -25 -6 -25 -18 0 -25 5 -25 18 0 11 -7 33 -16 50 -8 18 -12
36 -9 42 11 18 23 2 30 -40z m311 25 c4 -8 3 -23 -1 -32 -6 -17 -7 -17 -20 0
-10 13 -14 15 -18 5 -2 -7 -8 -10 -12 -6 -9 8 22 48 37 48 5 0 11 -7 14 -15z
m-157 -122 c-1 -38 -1 -38 -9 -9 -8 27 -6 46 6 46 2 0 4 -17 3 -37z m961 27
c0 -5 -2 -10 -4 -10 -3 0 -8 5 -11 10 -3 6 -1 10 4 10 6 0 11 -4 11 -10z m20
-40 c0 -5 -4 -10 -10 -10 -5 0 -10 5 -10 10 0 6 5 10 10 10 6 0 10 -4 10 -10z
m-670 -11 c0 -5 -11 -9 -25 -9 -14 0 -25 4 -25 9 0 5 11 9 25 9 14 0 25 -4 25
-9z m97 -51 c-3 -8 -6 -5 -6 6 -1 11 2 17 5 13 3 -3 4 -12 1 -19z m-847 2 c0
-5 -4 -10 -10 -10 -5 0 -10 5 -10 10 0 6 5 10 10 10 6 0 10 -4 10 -10z m718
-2 c-2 -3 6 -15 16 -27 19 -21 19 -21 -2 -21 -12 0 -22 6 -22 14 0 8 -3 22 -7
32 -4 11 -2 15 6 13 7 -3 11 -7 9 -11z m-648 -1 c0 -2 -15 -14 -32 -27 l-33
-23 24 26 c21 23 41 35 41 24z m876 -72 c9 -28 9 -35 -1 -35 -20 0 -49 62 -33
71 16 10 19 6 34 -36z m931 29 c-3 -3 -12 -4 -19 -1 -8 3 -5 6 6 6 11 1 17 -2
13 -5z m-1817 -38 c0 -3 -4 -8 -10 -11 -5 -3 -10 -1 -10 4 0 6 5 11 10 11 6 0
10 -2 10 -4z m591 -53 c11 -13 11 -17 1 -21 -7 -2 -19 -10 -27 -19 -13 -13
-15 -13 -15 1 0 8 5 18 11 21 6 4 8 13 5 21 -7 19 9 18 25 -3z m-136 -23 c3
-5 1 -10 -4 -10 -6 0 -11 5 -11 10 0 6 2 10 4 10 3 0 8 -4 11 -10z m-11 -26
c31 -12 17 -30 -19 -26 -37 4 -46 18 -17 25 9 3 18 5 19 6 1 0 8 -2 17 -5z
m206 -12 c0 -10 -12 -27 -27 -38 -23 -17 -32 -18 -51 -9 -19 11 -20 14 -8 24
8 7 24 10 35 6 14 -4 21 0 26 15 8 25 25 26 25 2z m-270 -32 c0 -5 -5 -10 -11
-10 -5 0 -7 5 -4 10 3 6 8 10 11 10 2 0 4 -4 4 -10z m-160 -139 c0 -19 -34
-35 -78 -38 l-47 -2 25 19 c30 24 62 27 54 5 -4 -8 -1 -15 6 -15 6 0 14 9 17
20 5 20 23 28 23 11z m1230 -41 c4 0 10 -10 12 -23 4 -20 1 -23 -19 -19 -13 2
-23 8 -23 12 0 5 -3 16 -7 26 -5 14 -3 16 11 11 10 -4 21 -7 26 -7z m560 -4
c0 -11 -19 -15 -25 -6 -3 5 1 10 9 10 9 0 16 -2 16 -4z m-1860 -14 c0 -12 -23
-32 -37 -32 -9 0 -8 6 5 19 18 21 32 26 32 13z m50 -31 c0 -5 -9 -11 -20 -14
-20 -5 -26 3 -13 16 9 10 33 8 33 -2z m390 -40 c0 -27 3 -57 7 -66 6 -16 5
-16 -19 -1 -14 9 -28 29 -31 43 -6 35 8 73 28 73 11 0 15 -12 15 -49z m135 19
c0 -35 -20 -35 -22 1 -2 20 2 29 10 26 7 -2 12 -14 12 -27z m-565 -40 c0 -5
-4 -10 -10 -10 -5 0 -10 5 -10 10 0 6 5 10 10 10 6 0 10 -4 10 -10z m610 -50
c0 -5 -2 -10 -4 -10 -3 0 -8 5 -11 10 -3 6 -1 10 4 10 6 0 11 -4 11 -10z
m-293 -105 c7 -16 8 -27 1 -31 -12 -8 -24 4 -33 34 -9 31 17 29 32 -3z m-157
-72 c0 -5 -5 -15 -10 -23 -7 -11 -12 -12 -21 -3 -6 6 -8 16 -5 22 8 12 36 15
36 4z"/>
<path d="M1767 6534 c-4 -4 -33 -8 -66 -8 -32 -1 -65 -7 -73 -14 -8 -6 -39
-17 -69 -23 -30 -6 -59 -15 -64 -19 -6 -5 -41 -16 -79 -24 -38 -9 -74 -20 -80
-25 -6 -4 -37 -13 -69 -20 -36 -8 -62 -20 -70 -32 -6 -10 -20 -19 -30 -19 -10
0 -21 -8 -25 -17 -8 -21 -27 -25 -99 -25 -63 1 -72 -14 -32 -52 16 -15 29 -35
30 -44 4 -111 13 -172 28 -197 3 -5 6 -12 6 -15 3 -23 28 -88 52 -132 8 -16
16 -53 18 -84 3 -30 8 -61 12 -67 4 -7 8 -16 10 -22 1 -5 10 -39 21 -75 11
-36 29 -95 40 -131 11 -37 27 -77 35 -90 8 -13 17 -51 19 -83 l3 -59 -35 -9
c-19 -5 -44 -13 -55 -18 -29 -13 -94 -28 -140 -32 -39 -3 -40 -2 -37 27 2 17
8 35 13 41 5 6 5 15 0 20 -5 5 -16 43 -26 84 -10 41 -23 82 -30 90 -7 8 -15
35 -18 60 -3 25 -13 59 -21 75 -9 17 -16 40 -16 53 0 12 -5 22 -11 22 -6 0 -8
9 -4 20 5 15 2 20 -11 20 -13 0 -14 3 -5 14 9 11 9 17 -2 27 -8 8 -12 21 -9
31 2 10 0 18 -6 18 -9 0 -23 31 -26 57 -1 6 -11 23 -24 36 -13 14 -20 30 -17
40 4 10 0 16 -12 19 -16 3 -16 5 4 25 17 17 19 23 7 27 -8 3 -14 19 -14 38 0
18 -7 58 -16 88 -8 30 -16 60 -17 65 -7 31 -17 34 -65 20 -26 -8 -63 -16 -82
-18 -19 -2 -42 -7 -50 -10 -8 -3 -35 -11 -60 -17 -25 -6 -54 -15 -65 -20 -19
-8 -89 -29 -225 -66 -30 -8 -64 -19 -75 -24 -11 -5 -46 -16 -78 -25 l-59 -16
4 -158 c2 -98 7 -163 14 -172 7 -8 15 -29 19 -46 3 -18 17 -54 31 -80 13 -27
27 -64 30 -83 3 -19 8 -42 11 -50 4 -8 7 -17 8 -20 4 -12 17 -47 26 -68 5 -13
9 -34 9 -47 0 -13 5 -27 11 -31 7 -4 8 -9 0 -17 -5 -5 -7 -17 -2 -26 4 -9 16
-47 25 -86 18 -71 41 -127 63 -156 7 -8 15 -41 17 -73 2 -36 10 -64 21 -77 10
-10 15 -19 10 -19 -4 0 -2 -7 5 -15 6 -8 12 -30 12 -50 0 -22 4 -33 10 -28 7
4 9 -4 6 -21 -3 -14 -2 -26 2 -26 5 0 6 -9 3 -20 -3 -11 0 -27 7 -35 7 -8 9
-15 5 -15 -4 0 -3 -6 3 -12 5 -7 15 -39 22 -70 6 -32 16 -60 21 -63 5 -4 9
-15 9 -26 0 -10 9 -27 19 -36 16 -13 17 -19 8 -35 -10 -16 -9 -21 5 -29 9 -5
19 -23 23 -39 4 -17 13 -30 21 -30 16 0 19 -16 4 -25 -16 -10 -11 -58 10 -103
12 -24 18 -46 16 -51 -3 -5 1 -14 9 -21 7 -6 11 -19 8 -27 -5 -12 -2 -15 9
-10 17 6 28 -28 28 -82 0 -15 5 -32 12 -39 8 -8 8 -15 0 -25 -6 -7 -8 -18 -3
-23 4 -5 14 -30 21 -56 7 -26 18 -52 25 -58 8 -6 16 -29 20 -51 4 -21 11 -39
15 -39 5 0 7 -18 5 -39 -3 -29 1 -41 12 -45 12 -5 13 -9 4 -20 -8 -10 -9 -16
-1 -21 5 -3 10 -17 10 -31 0 -13 5 -24 11 -24 6 0 8 -7 5 -16 -3 -9 1 -30 9
-47 8 -18 19 -54 25 -82 6 -27 16 -55 21 -62 6 -7 8 -17 5 -22 -4 -5 -2 -12 4
-16 5 -3 10 -15 10 -26 0 -11 6 -22 14 -25 16 -6 30 -57 27 -96 -4 -52 8 -59
67 -38 29 10 77 24 108 31 30 7 57 16 60 21 3 4 12 8 21 8 8 0 30 13 48 28 21
19 48 31 80 35 26 4 54 12 62 18 10 9 20 9 38 1 19 -9 27 -8 40 4 8 8 18 13
23 10 12 -7 105 15 122 29 8 7 37 15 63 19 26 3 57 11 69 17 20 11 20 13 5 24
-10 7 -15 19 -11 29 3 9 1 16 -5 16 -7 0 -11 23 -11 59 0 33 -4 62 -9 65 -5 4
-12 25 -16 49 -4 23 -10 47 -13 52 -4 6 -8 21 -10 33 -1 13 -14 40 -27 60 -15
24 -23 48 -21 66 2 18 -4 40 -16 56 -10 14 -20 45 -21 67 -1 30 -6 43 -18 46
-11 3 -20 19 -24 41 -4 20 -11 39 -16 42 -5 3 -6 16 -3 30 3 13 3 32 -2 41
-16 38 -31 106 -27 124 3 11 0 19 -7 19 -6 0 -9 8 -5 19 3 10 -1 24 -10 31 -8
7 -13 16 -10 20 4 7 -10 69 -22 100 -4 8 -7 17 -8 20 -1 3 -5 12 -8 20 -15 35
-26 111 -21 139 6 26 11 31 36 31 16 0 50 9 76 19 26 11 64 22 85 25 34 4 37
3 26 -10 -9 -11 -9 -18 -2 -22 6 -4 14 -23 18 -42 4 -19 15 -43 25 -52 10 -9
21 -40 25 -70 4 -29 14 -62 21 -74 8 -12 12 -29 8 -38 -3 -9 5 -40 19 -69 14
-28 31 -74 38 -102 6 -27 16 -55 21 -62 5 -6 11 -24 14 -40 3 -15 10 -46 16
-68 7 -22 12 -42 12 -45 1 -3 4 -9 8 -15 3 -5 12 -36 19 -69 8 -32 20 -61 27
-63 6 -3 12 -11 12 -19 0 -8 5 -14 11 -14 6 0 8 -8 4 -19 -3 -11 -1 -22 5 -26
6 -3 8 -10 5 -15 -3 -4 2 -24 10 -44 9 -20 13 -47 9 -61 -6 -25 12 -121 26
-140 5 -5 11 -27 15 -48 6 -32 10 -37 29 -31 117 35 155 47 176 56 14 6 30 12
35 12 30 4 132 30 141 37 6 5 42 16 80 25 38 8 73 19 79 23 5 5 34 14 63 21
28 6 54 16 57 20 3 4 25 11 50 14 25 4 45 11 45 17 0 5 7 9 15 9 29 0 34 33
15 100 -28 99 -42 128 -63 134 -16 4 -19 11 -14 35 5 21 1 35 -10 47 -11 11
-16 30 -14 54 1 21 -2 41 -8 45 -6 3 -11 17 -11 30 0 13 -7 30 -15 39 -8 8
-15 27 -15 43 0 16 -4 33 -9 39 -5 5 -11 32 -12 59 -1 28 -6 55 -12 62 -5 7
-6 17 -2 23 3 5 -5 21 -19 34 -14 13 -26 30 -26 37 0 8 -6 25 -13 39 -24 45
-26 69 -9 79 12 7 13 13 6 23 -6 7 -16 38 -23 68 -8 30 -16 59 -19 65 -3 5 -7
16 -8 25 -6 39 -44 151 -59 173 -9 15 -14 30 -11 35 5 9 -13 91 -24 107 -4 6
-13 35 -20 65 -7 30 -16 60 -20 65 -4 6 -15 44 -25 85 -10 41 -21 80 -25 85
-4 6 -13 35 -20 65 -7 30 -17 61 -23 68 -5 6 -6 12 -2 12 4 0 0 12 -10 26 -9
14 -14 28 -12 31 8 7 -14 77 -30 95 -9 10 -13 24 -10 33 4 8 2 15 -4 15 -6 0
-8 7 -5 17 4 9 1 20 -5 24 -7 4 -13 22 -14 41 -3 48 -36 152 -52 161 -7 4 -13
14 -13 22 0 7 -5 15 -11 17 -6 2 -12 22 -14 44 -1 23 -5 45 -8 51 -3 5 -8 33
-11 63 -3 29 -12 58 -20 64 -8 6 -22 43 -31 81 -10 39 -23 76 -29 84 -6 8 -10
22 -8 32 2 9 -2 20 -8 24 -5 3 -10 17 -10 29 0 13 -7 29 -15 36 -9 7 -15 22
-14 34 6 71 -4 109 -24 90z m-124 -200 c3 -18 0 -24 -13 -24 -12 0 -20 14 -27
46 l-10 45 22 -21 c13 -12 25 -32 28 -46z m122 -124 c-3 -5 -11 -10 -16 -10
-6 0 -7 5 -4 10 3 6 11 10 16 10 6 0 7 -4 4 -10z m-125 -31 c0 -5 -10 -9 -21
-9 -18 0 -19 2 -9 15 12 15 30 12 30 -6z m125 -9 c-3 -5 -11 -10 -16 -10 -6 0
-7 5 -4 10 3 6 11 10 16 10 6 0 7 -4 4 -10z m-618 -42 c-3 -7 -5 -2 -5 12 0
14 2 19 5 13 2 -7 2 -19 0 -25z m351 -47 c7 -4 15 -29 17 -55 2 -27 0 -44 -6
-41 -5 4 -9 1 -9 -5 0 -6 -5 -8 -11 -5 -6 4 -8 13 -5 21 3 7 1 16 -4 19 -12 7
-14 75 -2 75 4 0 13 -4 20 -9z m-1237 -124 c12 -22 12 -22 -10 -3 -11 11 -21
23 -21 28 0 14 19 -1 31 -25z m1295 -95 c4 -23 3 -42 -2 -42 -15 0 -40 34 -40
55 0 11 -3 32 -7 47 l-7 27 25 -23 c14 -14 27 -39 31 -64z m-1065 -95 c-15
-15 -20 -7 -36 54 -11 40 -11 55 -3 60 17 11 54 -99 39 -114z m1225 -114 c4
-16 10 -32 14 -38 4 -5 10 -31 13 -57 4 -26 12 -57 19 -68 11 -18 10 -23 -7
-36 -18 -13 -20 -12 -28 8 -5 13 -10 39 -11 58 -1 20 -5 41 -9 47 -4 6 -3 15
3 18 7 4 8 11 2 18 -5 7 -13 27 -17 45 -8 40 12 45 21 5z m-236 -3 c0 -5 -4
-10 -10 -10 -5 0 -10 5 -10 10 0 6 5 10 10 10 6 0 10 -4 10 -10z m70 -60 c0
-5 -2 -10 -4 -10 -3 0 -8 5 -11 10 -3 6 -1 10 4 10 6 0 11 -4 11 -10z m-680
-10 c0 -5 -7 -10 -15 -10 -8 0 -15 5 -15 10 0 6 7 10 15 10 8 0 15 -4 15 -10z
m-500 -37 c0 -13 -3 -13 -15 -3 -8 7 -12 16 -9 21 8 13 24 1 24 -18z m1191 -3
c4 -59 6 -77 13 -92 6 -13 4 -18 -8 -18 -8 0 -18 10 -20 23 -10 50 -14 96 -9
101 12 12 23 6 24 -14z m-149 -57 c3 -27 3 -50 1 -52 -9 -11 -25 21 -30 58 -4
33 -2 41 10 41 11 0 16 -13 19 -47z m213 -1 c-6 -7 -35 18 -35 31 0 5 9 2 20
-8 11 -10 18 -20 15 -23z m-720 -24 c4 -18 9 -42 11 -53 4 -16 1 -15 -20 8
-28 31 -35 77 -12 77 8 0 17 -14 21 -32z m-687 -16 c16 -11 29 -82 14 -82 -9
0 -25 31 -27 52 0 3 -3 10 -7 14 -20 19 -4 31 20 16z m286 -7 c-4 -8 -11 -15
-16 -15 -6 0 -5 6 2 15 7 8 14 15 16 15 2 0 1 -7 -2 -15z m184 -66 c2 -23 2
-23 -12 -6 -8 10 -23 25 -33 32 -16 13 -15 13 12 6 22 -5 31 -14 33 -32z m105
-44 c4 -8 2 -17 -3 -20 -6 -4 -10 3 -10 14 0 25 6 27 13 6z m967 -9 c0 -3 -4
-8 -10 -11 -5 -3 -10 -1 -10 4 0 6 5 11 10 11 6 0 10 -2 10 -4z m-1518 -101
c3 -14 2 -25 -2 -25 -9 0 -20 25 -20 46 0 23 17 7 22 -21z m208 31 c0 -11 -19
-15 -25 -6 -3 5 1 10 9 10 9 0 16 -2 16 -4z m60 -17 c0 -6 -4 -7 -10 -4 -5 3
-10 11 -10 16 0 6 5 7 10 4 6 -3 10 -11 10 -16z m1270 -45 c0 -8 -5 -12 -10
-9 -6 4 -8 11 -5 16 9 14 15 11 15 -7z m-74 -41 c4 -10 9 -22 9 -28 1 -5 7
-23 14 -38 12 -30 7 -52 -10 -41 -5 3 -7 9 -4 14 3 5 -1 12 -9 17 -18 10 -34
93 -18 93 5 0 13 -8 18 -17z m-766 -3 c0 -5 -5 -10 -11 -10 -5 0 -7 5 -4 10 3
6 8 10 11 10 2 0 4 -4 4 -10z m198 -58 l3 -52 -25 25 c-34 34 -41 61 -19 74
29 17 38 7 41 -47z m956 36 c10 -39 6 -44 -13 -18 -19 23 -19 40 -2 40 5 0 11
-10 15 -22z m-92 -13 c3 -14 2 -25 -3 -25 -12 0 -30 36 -22 44 12 12 21 6 25
-19z m-682 -85 c0 -5 -5 -10 -11 -10 -5 0 -7 5 -4 10 3 6 8 10 11 10 2 0 4 -4
4 -10z m-1020 -20 c0 -5 -5 -10 -11 -10 -5 0 -7 5 -4 10 3 6 8 10 11 10 2 0 4
-4 4 -10z m1060 -75 c0 -10 7 -23 17 -30 15 -11 11 -35 -7 -35 -8 0 -31 55
-46 110 l-6 25 21 -27 c11 -14 21 -34 21 -43z m-485 24 c-20 -18 -39 -29 -42
-25 -4 3 -17 -4 -30 -16 -13 -12 -23 -16 -23 -10 0 6 9 16 20 22 11 6 20 20
20 32 0 20 1 20 19 4 18 -17 20 -16 26 3 3 12 15 21 26 21 16 0 13 -6 -16 -31z
m1385 -28 c0 -6 -4 -13 -10 -16 -5 -3 -10 1 -10 9 0 9 5 16 10 16 6 0 10 -4
10 -9z m-1801 -96 l1 -30 -20 25 c-23 29 -25 41 -8 58 15 15 26 -7 27 -53z
m29 -64 c3 -8 -1 -12 -9 -9 -7 2 -15 10 -17 17 -3 8 1 12 9 9 7 -2 15 -10 17
-17z m379 -37 c-9 -9 -28 6 -21 18 4 6 10 6 17 -1 6 -6 8 -13 4 -17z m-270
-46 c-3 -8 -6 -5 -6 6 -1 11 2 17 5 13 3 -3 4 -12 1 -19z m-78 -40 c1 -5 -3
-8 -9 -8 -5 0 -10 12 -9 28 0 24 1 25 9 7 5 -11 9 -23 9 -27z m1469 10 c7 -18
21 -49 29 -68 9 -19 17 -38 17 -42 1 -3 4 -10 8 -14 8 -8 -9 -34 -22 -34 -4 0
-11 20 -14 45 -4 26 -13 45 -20 45 -13 0 -38 85 -28 95 11 10 17 4 30 -27z
m-528 8 c0 -3 -4 -8 -10 -11 -5 -3 -10 -1 -10 4 0 6 5 11 10 11 6 0 10 -2 10
-4z m-610 -86 c0 -5 -4 -10 -10 -10 -5 0 -10 5 -10 10 0 6 5 10 10 10 6 0 10
-4 10 -10z m14 -46 c11 -27 7 -37 -9 -24 -16 14 -20 40 -6 40 5 0 12 -7 15
-16z m-364 -8 c0 -3 -4 -8 -10 -11 -5 -3 -10 -1 -10 4 0 6 5 11 10 11 6 0 10
-2 10 -4z m-40 -16 c0 -5 -4 -10 -10 -10 -5 0 -10 5 -10 10 0 6 5 10 10 10 6
0 10 -4 10 -10z m416 -47 c-10 -10 -19 5 -10 18 6 11 8 11 12 0 2 -7 1 -15 -2
-18z m1304 -42 c13 -25 13 -61 0 -61 -11 0 -30 42 -30 66 0 20 18 17 30 -5z
m-230 -66 c0 -14 -4 -25 -10 -25 -5 0 -10 4 -10 9 0 5 -3 16 -6 25 -4 11 -1
16 10 16 10 0 16 -9 16 -25z m-1160 -167 c0 -10 4 -18 9 -18 5 0 8 -11 7 -25
-1 -26 -15 -29 -26 -4 -4 8 -15 36 -24 63 l-17 50 26 -24 c14 -13 25 -32 25
-42z m1497 0 c-3 -8 -6 -5 -6 6 -1 11 2 17 5 13 3 -3 4 -12 1 -19z m-86 -55
c7 -18 6 -30 -1 -37 -7 -7 -10 -3 -10 11 0 12 -5 25 -10 28 -6 4 -8 11 -5 16
10 14 15 11 26 -18z m-311 7 c0 -5 -5 -10 -11 -10 -5 0 -7 5 -4 10 3 6 8 10
11 10 2 0 4 -4 4 -10z m-640 -25 c0 -24 -9 -30 -40 -25 -21 3 -23 6 -15 29 4
14 15 21 31 21 19 0 24 -5 24 -25z m500 10 c7 -9 8 -15 2 -15 -5 0 -12 7 -16
15 -3 8 -4 15 -2 15 2 0 9 -7 16 -15z m-1108 -37 c-7 -7 -12 -8 -12 -2 0 14
12 26 19 19 2 -3 -1 -11 -7 -17z m432 -30 c-9 -14 -24 2 -24 25 1 21 1 21 15
3 8 -10 12 -23 9 -28z m736 22 c0 -5 -4 -10 -10 -10 -5 0 -10 5 -10 10 0 6 5
10 10 10 6 0 10 -4 10 -10z m360 -30 c0 -5 -5 -10 -11 -10 -5 0 -7 5 -4 10 3
6 8 10 11 10 2 0 4 -4 4 -10z m-1352 -129 c3 -8 -1 -12 -9 -9 -7 2 -15 10 -17
17 -3 8 1 12 9 9 7 -2 15 -10 17 -17z m1382 -14 c0 -20 0 -20 -14 -2 -8 11
-12 23 -9 28 8 13 23 -3 23 -26z m290 13 c0 -5 -7 -10 -15 -10 -8 0 -15 5 -15
10 0 6 7 10 15 10 8 0 15 -4 15 -10z m20 -110 c0 -5 -2 -10 -4 -10 -3 0 -8 5
-11 10 -3 6 -1 10 4 10 6 0 11 -4 11 -10z m-1376 -26 c4 -9 4 -19 2 -21 -8 -8
-26 8 -26 23 0 19 16 18 24 -2z m940 -19 c-4 -8 -8 -15 -10 -15 -2 0 -4 7 -4
15 0 8 4 15 10 15 5 0 7 -7 4 -15z m-714 -37 c0 -6 -7 -5 -15 2 -8 7 -15 17
-15 22 0 6 7 5 15 -2 8 -7 15 -17 15 -22z m-115 -24 c14 -15 25 -37 25 -48 0
-12 5 -27 12 -34 9 -9 9 -15 0 -24 -9 -9 -12 -8 -12 4 0 21 -20 58 -47 88 -13
13 -23 27 -23 32 0 16 22 7 45 -18z m165 -53 c12 -24 13 -31 2 -31 -5 0 -14
11 -20 25 -14 29 2 34 18 6z m863 12 c-7 -2 -19 -2 -25 0 -7 3 -2 5 12 5 14 0
19 -2 13 -5z m-81 -125 c-7 -7 -12 -8 -12 -2 0 14 12 26 19 19 2 -3 -1 -11 -7
-17z m63 -8 c-3 -5 -10 -10 -16 -10 -5 0 -9 5 -9 10 0 6 7 10 16 10 8 0 12 -4
9 -10z m-997 -69 c-1 -3 1 -13 5 -21 3 -8 10 -34 15 -57 19 -83 -14 -35 -37
53 -6 23 -18 47 -26 54 -8 7 -12 17 -8 23 6 10 53 -39 51 -52z m-428 -192 c0
-11 -4 -17 -10 -14 -5 3 -10 13 -10 21 0 8 5 14 10 14 6 0 10 -9 10 -21z"/>
<path d="M7065 6440 c-3 -5 -2 -10 4 -10 5 0 13 5 16 10 3 6 2 10 -4 10 -5 0
-13 -4 -16 -10z"/>
<path d="M6960 6210 c0 -5 5 -10 10 -10 6 0 10 5 10 10 0 6 -4 10 -10 10 -5 0
-10 -4 -10 -10z"/>
<path d="M6796 6073 c-4 -9 -3 -19 2 -22 4 -3 9 -15 10 -26 1 -11 3 -38 5 -60
2 -22 5 -48 6 -57 0 -10 8 -18 17 -18 13 0 14 -3 5 -14 -7 -8 -8 -17 -3 -20 5
-3 12 -24 16 -48 4 -23 13 -56 21 -72 7 -17 19 -54 25 -83 6 -29 18 -57 26
-64 8 -6 14 -28 14 -49 0 -20 3 -40 7 -44 4 -3 8 -16 10 -27 2 -12 12 -49 23
-83 11 -33 23 -78 27 -98 3 -21 9 -38 14 -38 18 0 24 -4 42 -26 9 -12 17 -29
17 -38 0 -9 7 -16 16 -16 13 0 14 -3 4 -15 -6 -8 -9 -19 -5 -25 4 -6 0 -17 -9
-23 -14 -11 -14 -18 1 -77 9 -36 19 -69 23 -73 4 -5 32 -1 61 8 30 9 77 18
104 20 85 8 140 17 150 25 12 9 163 56 230 70 27 6 54 15 60 20 5 4 28 11 50
15 39 7 105 43 105 58 0 4 10 17 21 28 16 16 18 23 9 29 -7 4 -9 13 -6 19 5 7
-1 11 -15 11 -22 0 -22 0 -3 15 19 15 19 15 -2 32 -14 12 -22 30 -22 52 0 18
-6 39 -11 44 -6 6 -11 25 -11 41 0 29 -14 93 -27 126 -3 8 -5 19 -4 24 1 4 -2
13 -7 20 -5 6 -12 25 -16 41 -4 17 -14 37 -22 47 -11 11 -12 18 -4 23 7 4 7
11 2 18 -5 7 -15 35 -21 62 -21 82 -19 79 -36 65 -9 -7 -13 -20 -10 -29 7 -24
-7 -39 -35 -39 -14 0 -53 -1 -88 -2 -67 -2 -80 6 -102 58 -5 12 -16 22 -25 22
-8 0 -15 6 -15 14 0 7 -13 19 -28 25 -22 9 -34 9 -57 -3 -45 -21 -113 -30
-130 -16 -8 6 -18 9 -24 6 -5 -3 -11 1 -15 9 -3 8 -16 15 -30 15 -43 0 -73 17
-102 59 -31 42 -99 88 -108 72 -4 -6 -17 -4 -34 4 -48 23 -89 26 -96 8z m199
-203 c3 -5 1 -10 -4 -10 -6 0 -11 5 -11 10 0 6 2 10 4 10 3 0 8 -4 11 -10z
m214 -54 c7 -8 13 -35 15 -61 l3 -47 -20 27 c-19 26 -31 95 -17 95 4 0 13 -6
19 -14z m-209 -46 c0 -13 -5 -17 -20 -13 -23 6 -25 14 -8 31 14 14 28 6 28
-18z m628 -124 c3 -12 -1 -17 -10 -14 -7 3 -15 13 -16 22 -3 12 1 17 10 14 7
-3 15 -13 16 -22z m-575 -38 c-8 -15 -21 -8 -26 14 -3 12 -3 26 0 31 6 10 32
-34 26 -45z m127 -38 c0 -5 -4 -10 -10 -10 -5 0 -10 5 -10 10 0 6 5 10 10 10
6 0 10 -4 10 -10z m370 -17 c0 -22 -2 -25 -10 -13 -13 20 -13 40 0 40 6 0 10
-12 10 -27z m131 -8 c5 -15 4 -35 0 -44 -5 -9 -5 -25 0 -36 13 -34 10 -39 -10
-13 -34 42 -40 136 -9 126 7 -3 15 -17 19 -33z m-111 -39 c0 -3 -4 -8 -10 -11
-5 -3 -10 -1 -10 4 0 6 5 11 10 11 6 0 10 -2 10 -4z m-545 -96 c3 -5 -1 -10
-10 -10 -9 0 -13 5 -10 10 3 6 8 10 10 10 2 0 7 -4 10 -10z m184 -34 c14 -17
27 -106 15 -106 -11 0 -31 44 -40 88 -7 34 5 42 25 18z m67 -171 c10 -24 -6
-38 -22 -18 -7 10 -14 21 -14 26 0 13 31 7 36 -8z m312 -4 c3 -8 -1 -12 -9 -9
-7 2 -15 10 -17 17 -3 8 1 12 9 9 7 -2 15 -10 17 -17z m-290 -104 c-9 -17 -12
-18 -19 -5 -4 8 -5 25 -2 38 6 21 7 22 19 5 10 -13 10 -23 2 -38z"/>
<path d="M5260 5940 c0 -5 6 -10 14 -10 8 0 18 5 21 10 3 6 -3 10 -14 10 -12
0 -21 -4 -21 -10z"/>
<path d="M5300 5870 c0 -5 5 -10 10 -10 6 0 10 5 10 10 0 6 -4 10 -10 10 -5 0
-10 -4 -10 -10z"/>
<path d="M5275 5820 c3 -5 8 -10 11 -10 2 0 4 5 4 10 0 6 -5 10 -11 10 -5 0
-7 -4 -4 -10z"/>
<path d="M6535 5361 c-3 -5 -1 -12 5 -16 5 -3 10 1 10 9 0 18 -6 21 -15 7z"/>
<path d="M6555 5251 c-6 -11 9 -23 19 -14 9 9 7 23 -3 23 -6 0 -12 -4 -16 -9z"/>
<path d="M6515 5210 c-3 -5 1 -10 9 -10 9 0 16 5 16 10 0 6 -4 10 -9 10 -6 0
-13 -4 -16 -10z"/>
<path d="M6480 5200 c0 -5 5 -10 10 -10 6 0 10 5 10 10 0 6 -4 10 -10 10 -5 0
-10 -4 -10 -10z"/>
</g>
</svg>
